<svg width="105" height="80" viewBox="0 0 105 80" fill="none" xmlns="http://www.w3.org/2000/svg">
<path d="M104.711 29.0455C104.711 39.0528 102.229 48.4092 97.2665 57.1147C92.2222 65.9016 85.2252 73.4681 76.2756 79.8142L60.2883 66.7559C64.5191 64.6405 68.7905 61.2234 73.1025 56.5045C77.4146 51.7857 80.1402 47.2702 81.2792 42.9581C79.0011 43.5276 77.0892 43.8124 75.5433 43.8124C70.1736 43.8124 65.6174 41.9004 61.8748 38.0765C58.1323 34.2525 56.261 29.3303 56.261 23.3096C56.261 16.9635 58.5391 11.4717 63.0953 6.8342C67.6514 2.27803 73.0619 -4.85432e-05 79.3266 -4.79955e-05C86.4049 -4.73767e-05 92.4256 2.60347 97.3885 7.81052C102.27 13.0989 104.711 20.1773 104.711 29.0455ZM48.5725 29.0455C48.5725 39.0528 46.0503 48.4092 41.006 57.1147C35.9617 65.9016 28.9647 73.4681 20.0151 79.8142L4.02782 66.7559C8.17718 64.6405 12.3672 61.2234 16.5979 56.5045C20.8287 51.867 23.6356 47.3515 25.0187 42.9581C22.7406 43.5276 20.8287 43.8124 19.2828 43.8124C13.8317 43.8124 9.27554 41.9004 5.61434 38.0765C1.87177 34.2525 0.000492695 29.3303 0.000493221 23.3096C0.000493776 16.9635 2.27858 11.4717 6.83475 6.8342C11.3909 2.27803 16.72 -5.34688e-05 22.822 -5.29353e-05C29.9003 -5.23165e-05 35.9617 2.64415 41.006 7.93256C46.0503 13.221 48.5725 20.2586 48.5725 29.0455Z" fill="#E4F69E" fill-opacity="0.7"/>
</svg>
