<svg width="60" height="122" viewBox="0 0 60 122" fill="none" xmlns="http://www.w3.org/2000/svg">
<path d="M0.03125 61.8788V90.9602H29.104V61.8788H0.03125ZM21.7207 77.9933C21.7207 83.9656 18.5595 86.3791 14.3762 86.3791C10.3965 86.3791 7.40392 84.1342 7.40392 78.0812V66.6285H9.94344V78.1514C9.94344 82.4761 11.8683 84.3204 14.464 84.3204C17.3126 84.3204 19.1847 82.4234 19.1847 78.1514V66.6285H21.7207V77.9933Z" fill="white"/>
<path d="M30.9097 61.8788V90.9602H59.9824V61.8788H30.9097ZM52.7396 86.1191H50.2036L44.0428 76.2614C42.7038 74.1816 41.5001 72.0177 40.439 69.7832L40.3512 69.8114C40.4987 72.2705 40.5268 74.5892 40.5268 77.8212V86.1191H38.1664V66.6988H40.9307L47.1232 76.5354C48.4207 78.5604 49.5756 80.6734 50.5795 82.859L50.6673 82.8309C50.439 80.2347 50.3828 77.8774 50.3828 74.8737V66.7233H52.7396V86.1191Z" fill="white"/>
<path d="M0 92.7588V121.837H29.0762V92.7588H0ZM20.418 114.276C18.5704 116.093 15.5743 117.062 11.8054 117.062C10.2801 117.086 8.75481 117.011 7.2392 116.838V97.7368C9.01234 97.4706 10.8027 97.3356 12.5957 97.3328C16.196 97.3328 18.7601 98.1409 20.4566 99.7253C22.2129 101.313 23.2209 103.59 23.2209 106.727C23.2209 109.864 22.1988 112.492 20.418 114.276Z" fill="white"/>
<path d="M12.2937 115.053C11.4477 115.082 10.6008 115.042 9.76123 114.933V99.5813C10.7288 99.3962 11.7127 99.3103 12.6977 99.3248C17.9945 99.3248 20.5902 102.177 20.5586 106.811C20.5586 112.056 17.6467 115.081 12.2937 115.053Z" fill="white"/>
<path d="M12.2937 115.053C11.4477 115.082 10.6008 115.042 9.76123 114.933V99.5813C10.7288 99.3962 11.7127 99.3103 12.6977 99.3248C17.9945 99.3248 20.5902 102.177 20.5586 106.811C20.5586 112.056 17.6467 115.081 12.2937 115.053Z" fill="white"/>
<path d="M30.9097 92.7272V121.809H59.9824V92.7272H30.9097ZM50.5408 107.198C49.2202 108.603 47.067 109.305 44.6083 109.305C43.9307 109.327 43.2528 109.27 42.5886 109.133V116.911H40.0842V97.765C41.6733 97.4806 43.2856 97.3453 44.8998 97.3609C47.3796 97.3609 49.1921 97.9406 50.3441 98.9805C50.9108 99.4897 51.3591 100.117 51.6577 100.818C51.9562 101.519 52.0977 102.277 52.0723 103.038C52.0723 104.788 51.5524 106.172 50.5408 107.198Z" fill="white"/>
<path d="M44.6716 107.415C43.9741 107.432 43.2772 107.364 42.5957 107.215V99.669C43.3755 99.5271 44.1671 99.4601 44.9596 99.4688C47.7274 99.4688 49.5258 100.702 49.5258 103.302C49.5258 105.901 47.7239 107.415 44.6716 107.415Z" fill="white"/>
<path d="M0.03125 0.0483398V60.0415H59.9997V0.0483398H0.03125ZM51.4749 31.2833C50.6354 32.4742 49.6203 33.5843 48.8441 34.7964C48.9319 33.8373 49.0443 32.6534 48.6649 31.7435C47.9572 29.7733 47.4856 27.7261 47.2599 25.6447V24.8227C47.7482 27.0184 49.9083 28.5325 49.7678 30.9952C49.77 31.5465 49.6883 32.095 49.5255 32.6217L49.5606 32.6639L49.659 32.5515C49.9786 31.3465 50.1366 30.0712 50.6354 28.9435C51.3379 27.324 52.2231 25.6869 51.8648 23.7266C52.9747 26.0452 52.6516 29.1262 51.4749 31.2833ZM50.1437 18.8399C50.8561 19.878 51.2942 21.0797 51.417 22.3328C51.5398 23.586 51.3434 24.8498 50.8462 26.0066C50.4607 26.9569 50.1907 27.95 50.0418 28.9646C49.968 28.789 49.954 28.5501 49.8908 28.3498C49.3288 26.1998 47.2915 24.6646 46.4521 22.634C46.1787 21.9665 45.9728 21.2733 45.8374 20.5648C46.7331 22.2195 48.9389 23.0732 49.5395 24.8965C49.7854 25.3602 49.7713 25.9504 49.9189 26.4317C49.9351 26.4327 49.9511 26.4274 49.9635 26.4169C49.9759 26.4065 49.9838 26.3916 49.9856 26.3755C49.75 24.4816 49.7748 22.5644 50.0594 20.6772C50.0418 19.669 49.947 18.6958 49.3885 17.9194C49.7397 18.1267 49.9013 18.5272 50.1437 18.8399ZM49.1496 18.471C49.522 20.1503 48.981 21.7874 49.3218 23.4842C48.4085 21.6855 46.4661 20.8388 45.1349 19.3985C44.4163 18.5489 43.9631 17.5068 43.8318 16.4018C44.5975 18.2497 46.6593 18.6572 47.843 20.2065C48.2399 20.5578 48.3699 21.0637 48.6263 21.4712L48.6649 21.429C47.9835 19.9746 47.7552 18.3375 47.288 16.7882C47.0306 16.0775 46.5594 15.4639 45.9392 15.0317C47.4777 15.3619 48.823 16.985 49.1496 18.471ZM44.9909 14.6066C46.1676 15.6605 46.6944 17.0131 47.0386 18.4218L47.2283 18.868C45.5084 17.6197 44.0391 16.0584 42.8974 14.2658L41.5697 12.9203C42.7394 13.4262 43.9933 13.7213 44.9909 14.6171V14.6066ZM22.7605 13.3138C25.0254 12.2046 27.5095 11.6153 30.0313 11.5889C33.0467 11.6069 35.9962 12.473 38.5428 14.0882C41.0894 15.7034 43.1303 18.0026 44.4324 20.7229C46.1498 24.2143 46.5248 28.215 45.4861 31.9648C44.3902 36.2402 40.7935 40.5649 36.6066 42.3249C31.8929 44.6365 25.1911 44.0569 20.9902 41.0426C15.1489 37.0412 12.7569 30.152 14.5237 23.3296C15.5985 19.279 18.8195 15.1933 22.7605 13.3138ZM18.138 13.1557C16.9649 14.185 16.157 15.506 15.2789 16.7074C14.4956 17.6735 13.4981 18.3129 12.6094 19.142C13.0906 18.1513 13.1082 16.9674 13.7861 16.0575C14.752 14.3712 16.5434 13.7775 18.138 13.1557ZM11.7172 16.7426C12.2469 16.0559 12.9873 15.5622 13.8247 15.3373C12.2476 16.4229 12.346 18.3726 11.8437 19.9957C11.6821 20.5964 11.4046 21.148 11.2676 21.7522L11.3098 21.7839C11.6028 21.0599 12.0457 20.4062 12.6094 19.8657C13.7369 18.8118 15.4194 18.1794 15.9533 16.6442C15.9287 18.7802 14.1444 20.4559 12.4408 21.6574C11.7244 22.2396 11.1279 22.9554 10.6846 23.7652C10.6459 23.2312 10.7689 22.6867 10.7302 22.1106C10.537 20.2521 10.3966 18.1267 11.7172 16.7426ZM8.51387 23.1153C8.46469 21.2288 9.24446 19.6865 10.3509 18.2813C10.3825 18.2813 10.4071 18.2321 10.4457 18.2391C9.23041 20.073 10.235 22.4127 10.1858 24.5135L10.0242 26.6635C10.0453 26.6635 10.0453 26.7443 10.105 26.7162C10.1626 26.4717 10.2072 26.2243 10.2385 25.975C10.537 24.2395 12.0263 23.0099 13.347 21.8295C13.6279 21.5393 13.855 21.2014 14.0179 20.8318C13.8975 21.7073 13.6502 22.5606 13.2838 23.3647C12.2582 25.3426 10.3649 26.9832 10.0207 29.2667C9.85563 27.0992 8.35932 25.441 8.51387 23.1153ZM7.59009 25.7993C7.69297 25.1976 7.86019 24.6087 8.08886 24.0428C7.60062 26.5371 9.27607 28.3323 9.82753 30.4998C10.0594 31.3043 10.1191 32.1756 10.4457 32.9379C10.4773 32.9379 10.5019 32.9379 10.523 32.8958C9.70108 30.6123 10.8883 28.4798 12.0755 26.6776C12.3482 26.179 12.5492 25.6444 12.6726 25.0897C12.7991 26.1436 12.5392 27.3275 12.3846 28.406C12.1001 29.7797 11.6821 31.083 11.2922 32.418C11.0865 33.286 11.0686 34.1879 11.2395 35.0634L11.1201 34.9685C10.2455 33.363 8.52089 32.1053 8.0151 30.3488C7.51601 28.8872 7.37036 27.3281 7.59009 25.7993ZM7.5093 30.6755C7.70249 33.3244 10.5476 34.7226 11.8683 36.9112C12.1504 37.3864 12.485 37.8283 12.8658 38.2286C12.7991 37.9476 12.5392 37.7087 12.4443 37.4206C11.9844 36.4482 11.8102 35.3651 11.942 34.2975C12.0685 32.945 12.6445 31.6908 12.4232 30.268C13.5788 32.7693 13.2276 35.8889 13.8739 38.5975C14.0425 39.1877 14.3867 39.7147 14.6115 40.2838C12.2301 38.6608 8.99156 37.122 7.93782 34.1429C7.46364 33.1206 7.41446 31.8524 7.5093 30.6755ZM8.93536 36.7496C10.2596 39.7463 13.5824 40.0028 15.8058 41.8331C16.1948 42.1909 16.6338 42.4902 17.1089 42.7219L17.13 42.6973C16.5694 42.2394 16.0773 41.7035 15.6688 41.1059C14.3656 39.2931 14.8223 36.7496 13.8458 34.7823C14.7422 35.7975 15.4929 36.9326 16.0762 38.1549C16.8771 40.1222 17.1791 42.3425 19.0267 43.832C17.0246 43.1751 14.6888 43.3613 12.9255 42.1282C11.0147 40.9618 9.29364 38.9559 8.93536 36.7496ZM12.346 42.3706C14.471 44.7946 17.9659 43.9866 20.7759 44.6155C21.1623 44.7287 21.5641 44.7809 21.9666 44.77C21.6154 44.5522 21.1588 44.5768 20.79 44.3836C18.5701 43.6002 18.2434 41.1972 17.0351 39.5742C18.5771 40.5965 19.8697 41.9806 21.2957 43.3156C22.3179 44.2079 23.5472 44.6225 24.8398 44.8895C24.5307 45.0019 24.1373 44.9668 23.7861 45.0581C21.4643 45.6342 18.8686 46.5687 16.4099 45.7256C14.6743 45.1618 13.2203 43.9551 12.346 42.353V42.3706ZM41.229 48.0126C38.83 48.9085 36.3291 47.974 34.457 46.5512C33.7194 46.0699 33.0169 45.3673 32.0439 45.4235C31.7085 45.4055 31.3724 45.4375 31.0464 45.5183C32.9174 46.3974 34.6273 47.585 36.1043 49.0314C35.8206 49.3321 35.5141 49.6105 35.1876 49.864C33.7018 48.2585 32.0263 46.7022 30.1999 45.8099C29.8341 45.8941 29.4858 46.0415 29.1707 46.2455C27.5926 47.2139 26.2007 48.4573 25.0611 49.9167L24.1022 49.1263C25.5678 47.6265 27.2889 46.4 29.1848 45.5043C27.3653 44.9316 26.1746 46.4563 24.7907 47.2327C23.1819 48.3534 20.8602 48.8804 18.9073 48.1075C17.8122 47.7294 16.8408 47.0602 16.0973 46.1718C17.6358 47.2257 19.9189 47.3416 21.6575 46.6566C24.0004 45.6378 26.4275 44.352 29.248 44.9668C29.6906 44.9668 30.1226 45.4164 30.5371 45.0405C32.655 44.5374 34.8834 44.8182 36.8103 45.831L38.6719 46.5722C40.4001 47.2116 42.6375 47.0395 44.1163 45.9785C43.3593 46.9053 42.3597 47.6035 41.229 47.995V48.0126ZM43.8001 45.5534C41.1061 46.5687 38.398 45.3251 35.8163 44.907L35.321 44.8438C36.5539 44.5663 37.7517 44.1974 38.7352 43.3086C40.1788 41.9033 41.4679 40.4981 43.0731 39.3915C41.8823 40.9197 41.7594 43.0908 39.7924 44.0744C39.3007 44.3941 38.6895 44.4503 38.1837 44.6927C38.9038 44.6927 39.5571 44.4503 40.2701 44.3801C42.908 43.969 45.9252 44.3801 47.7728 42.1422C47.0843 43.6529 45.3702 44.9668 43.8001 45.5183V45.5534ZM45.2929 42.8132C43.9231 43.1821 42.4514 43.3016 41.1131 43.7547C43.3751 41.812 43.2487 38.8083 44.7591 36.5213C45.2031 35.8478 45.6839 35.1992 46.1992 34.5785C45.2824 36.4264 45.6793 38.8153 44.6221 40.607C44.1893 41.3439 43.6387 42.0049 42.9923 42.5638C43.203 42.5638 43.3892 42.3741 43.5683 42.2511C45.2894 40.5438 47.5269 40.0625 49.3815 38.6713C50.1443 38.0981 50.7487 37.34 51.1377 36.4686C50.7794 39.2685 47.9589 41.9279 45.3105 42.7781L45.2929 42.8132ZM48.693 37.9757C47.6393 38.6783 46.5504 39.3177 45.5318 40.1082V40.0168C47.1019 37.4101 46.3326 33.8338 47.288 30.9741L47.6393 30.0185C47.4391 31.7962 48.2118 33.3103 48.1626 35.0985C48.1036 36.1364 47.7649 37.1391 47.1827 38.0003H47.2775C48.0467 36.9956 48.6474 35.9241 49.543 34.9615C50.9305 33.6195 52.353 32.2458 52.5322 30.3944C53.0134 33.4579 51.2817 36.1805 48.693 37.9406V37.9757Z" fill="white"/>
<path d="M29.5683 25.6237C29.4477 25.7865 29.2958 25.9236 29.1215 26.0267C28.9471 26.1299 28.7539 26.1971 28.5532 26.2244C28.4513 26.3509 28.4759 26.632 28.2265 26.6074C28.1493 26.783 27.8753 26.8884 27.9807 27.1449C27.9038 27.4462 27.8579 27.7546 27.8437 28.0653C27.3695 28.3569 27.4924 27.6718 27.2711 27.5278L27.1868 27.6613C27.0955 27.6859 27.0288 27.6297 26.962 27.5664C26.924 27.5431 26.8802 27.5308 26.8356 27.5308C26.791 27.5308 26.7472 27.5431 26.7091 27.5664C26.6038 27.7421 26.4457 27.8861 26.4843 28.125C26.4387 28.2691 26.1963 28.2199 26.2279 28.3709C26.5 28.3596 26.7704 28.3231 27.0358 28.262C27.222 28.3077 27.387 28.1742 27.5556 28.1672C27.6154 28.1988 27.6961 28.262 27.668 28.3569H27.7488C27.8102 28.3168 27.8561 28.2571 27.8791 28.1876C27.9021 28.118 27.9007 28.0427 27.8753 27.974C27.8753 27.8053 28.079 27.8053 28.1879 27.7561C28.2898 27.8053 28.2265 27.9072 28.2441 27.9915C28.5953 28.125 28.1563 28.3885 28.1071 28.5782C28.0579 28.7679 28.1071 29.0771 27.805 29.0279C27.7768 29.0197 27.7529 29.0008 27.7384 28.9751C27.724 28.9495 27.7202 28.9193 27.7278 28.8909H27.6856C27.6869 28.9636 27.7078 29.0347 27.7462 29.0965C27.7845 29.1583 27.8388 29.2087 27.9034 29.2422C28.1212 29.0595 28.1317 28.7468 28.4548 28.7082C28.6199 28.5325 28.3811 28.262 28.6305 28.118C29.0449 28.118 29.4875 27.9318 29.8177 28.2655C29.7931 28.4131 29.7404 28.4798 29.8598 28.5958C29.7999 28.7921 29.7021 28.9747 29.5718 29.1333C29.5909 29.1861 29.593 29.2437 29.5779 29.2978C29.5628 29.3519 29.5312 29.4 29.4875 29.4354C29.3786 29.9237 28.8201 29.6919 28.4935 29.8605C28.999 30.2328 29.6252 30.4032 30.2497 30.3383C30.601 30.3383 30.4429 29.8991 30.601 29.7094C30.7098 29.1508 31.2262 29.5338 31.5388 29.3792C31.6715 29.1501 31.7619 28.899 31.8057 28.6379C31.7109 28.5744 31.6389 28.4821 31.6003 28.3746C31.5617 28.2671 31.5586 28.1501 31.5915 28.0407C31.458 27.8545 31.4721 27.5172 31.1735 27.4856C31.1576 27.4546 31.1524 27.4191 31.1588 27.3848C31.1651 27.3505 31.1826 27.3192 31.2086 27.2959C31.2086 27.1203 31.3737 27.0605 31.4229 26.9446C31.2402 26.8252 31.2894 26.5617 31.3035 26.4071C30.9908 26.4985 30.9522 26.0874 30.7274 25.9996C30.6712 25.8169 30.471 25.7853 30.3129 25.7537C29.9301 25.9364 29.8669 25.4656 29.5788 25.3532C29.5472 25.2654 29.4805 25.1389 29.5788 25.0686C29.6772 24.9984 29.9301 25.0686 30.0811 25.0405L29.9441 24.9703C29.8177 24.8262 29.5402 24.9141 29.3716 24.9703C29.5367 25.1354 29.4699 25.4234 29.5683 25.6237Z" fill="white"/>
<path d="M30.3758 18.0143C30.6819 17.9687 30.9938 17.9794 31.296 18.046C32.8501 18.2529 34.3273 18.8473 35.5918 19.7744C35.4206 19.621 35.2985 19.4206 35.2405 19.1983C35.2512 19.184 35.2661 19.1733 35.283 19.1676C35.2999 19.162 35.3182 19.1616 35.3354 19.1666C35.3354 18.9172 35.0895 18.7907 35.0509 18.5659C35.069 18.5372 35.0958 18.515 35.1273 18.5024C35.1588 18.4898 35.1935 18.4874 35.2265 18.4956C35.4872 18.7458 35.7225 19.0212 35.929 19.3177C36.1046 19.2474 36.2486 19.3599 36.3786 19.4512C36.6069 19.5882 36.4664 19.8868 36.642 20.0449C36.6736 20.5157 37.2461 20.7827 37.218 21.2534C37.218 21.3623 37.3585 21.278 37.4077 21.3342L37.8854 21.9209C37.8691 21.9478 37.8583 21.9777 37.8537 22.0088C37.8491 22.0399 37.8507 22.0716 37.8586 22.1021C37.8664 22.1325 37.8803 22.1611 37.8994 22.1861C37.9185 22.2111 37.9424 22.232 37.9697 22.2476C38.184 22.3495 38.321 22.0755 38.5177 22.1141C38.8268 22.2898 38.4685 22.497 38.5001 22.6903C38.6195 22.6903 38.7741 22.5954 38.8689 22.7149C38.9075 22.8905 38.7249 23.0029 38.6511 23.1154C38.6511 23.291 38.7951 23.2524 38.9251 23.291C38.9583 23.2937 38.9906 23.3038 39.0193 23.3206C39.0481 23.3375 39.0727 23.3606 39.0913 23.3883C39.1099 23.4161 39.122 23.4476 39.1266 23.4806C39.1313 23.5137 39.1285 23.5473 39.1183 23.5791C39.5152 23.9936 38.9989 24.4433 39.1885 24.8824C39.2313 25.019 39.2341 25.165 39.1968 25.3031C39.1595 25.4413 39.0835 25.5659 38.9778 25.6623C38.9778 26.0137 38.6652 26.2315 38.5422 26.5266L38.1348 26.6074C37.917 26.8217 38.321 27.0887 38.0997 27.2222L38.9989 27.2397L38.9005 27.1449C38.8341 26.9583 38.8103 26.7592 38.831 26.5622C38.8516 26.3652 38.9162 26.1753 39.0199 26.0066C39.1044 25.6895 39.2486 25.3913 39.445 25.1284C39.5011 25.1284 39.603 25.0089 39.6522 25.1284C39.6817 25.4109 39.6343 25.6961 39.5152 25.9539C39.7751 26.3052 39.74 26.8006 39.7611 27.2538C40.5549 27.2046 41.3311 27.1905 42.1074 27.2011L42.0372 27.0465C41.9479 25.6132 41.5904 24.2095 40.9834 22.9081C40.8183 22.9081 40.6954 23.0521 40.5057 23.0029C40.4744 22.9909 40.4478 22.9689 40.4301 22.9404C40.4123 22.9118 40.4044 22.8783 40.4074 22.8448C40.1346 22.5029 39.8426 22.1768 39.5328 21.8682C39.1183 21.9069 38.9356 21.4361 38.5703 21.3869C38.2437 21.2534 38.4685 20.7229 37.9943 20.8705C37.8725 20.8297 37.7628 20.7592 37.6751 20.6653C37.5874 20.5715 37.5245 20.4573 37.492 20.333C37.5134 20.1213 37.4834 19.9076 37.4045 19.7101C37.3256 19.5125 37.2002 19.3369 37.0389 19.1983C36.7474 19.0929 36.6315 19.4758 36.3364 19.4126C36.1784 19.3318 36.2486 19.1245 36.1994 18.991C36.1503 18.8575 36.0098 18.7837 36.0343 18.6221C36.4102 18.1268 35.5777 18.1373 35.7604 17.649C35.7112 17.2977 35.3529 17.1572 35.1703 16.8796C33.9476 16.3118 32.6442 15.9373 31.3066 15.7695C30.9553 15.7203 30.6427 15.7941 30.3477 15.636L30.4249 15.7835C30.3968 16.5283 30.4495 17.3188 30.3758 18.0143Z" fill="white"/>
<path d="M29.2972 37.5014C27.4219 37.3942 25.6236 36.7191 24.1409 35.5657C24.1901 35.7554 24.443 35.8819 24.3727 36.1172C24.2357 36.3386 23.9583 36.3421 23.737 36.3386C23.2768 36.2613 22.9432 36.6091 22.5146 36.6547C22.1212 36.7742 21.9842 36.3034 21.626 36.3386C23.8459 38.2743 26.3854 39.5003 29.3534 39.6514L29.5782 39.8025L29.4799 39.532V37.4241L29.2972 37.5014Z" fill="white"/>
<path d="M18.0647 28.2795L18.2368 29.748C18.307 30.3171 18.5564 30.8616 18.5388 31.4202C18.6267 31.3008 18.574 31.0689 18.7882 31.0373C18.7004 30.8616 18.9568 30.7071 18.8128 30.556C18.8265 30.1596 18.9896 29.7831 19.2694 29.5021C19.6769 29.5021 19.705 28.947 20.1159 28.9259C20.3232 28.9259 20.4496 29.1964 20.541 29.2772C20.4375 29.1048 20.3692 28.9135 20.3403 28.7145C20.3114 28.5155 20.3223 28.3127 20.3724 28.1179L20.1967 28.1987C19.453 28.2283 18.7082 28.2131 17.9663 28.1531L18.0647 28.2795Z" fill="white"/>
<path d="M21.1834 19.4124V19.5634L20.3193 20.663C18.9143 22.6022 18.2329 24.8506 18.0327 27.2957L20.2245 27.2536L20.4317 27.3344C20.3439 27.2782 20.365 27.1833 20.3369 27.1025C20.4652 24.8667 21.3652 22.7447 22.8834 21.0986C22.2744 20.5809 21.706 20.0172 21.1834 19.4124Z" fill="white"/>
<path d="M33.3125 33.3207C33.6005 33.4718 33.9482 33.4823 34.2538 33.6088C34.5243 33.6791 34.7105 34.0163 35.0476 33.9109C35.3392 33.7528 35.8169 34.0093 36.0101 33.7037C35.9784 33.4086 36.2349 33.1907 36.3613 32.9378L36.4526 32.9132C36.6142 33.0818 36.6072 33.3313 36.6774 33.5139C36.9022 33.2751 37.0779 33.0081 37.2781 32.7621C37.8209 32.0248 38.2168 31.1899 38.4442 30.303C38.2308 30.3121 38.0195 30.3487 37.8155 30.4119C37.5836 30.4119 37.3027 30.5348 37.113 30.3732C37.0427 30.3135 36.99 30.4084 37.0041 30.4716C36.9198 30.5911 36.839 30.7421 36.6528 30.6859C36.4667 30.6297 36.5088 30.4716 36.4597 30.3592C36.4615 30.4428 36.4484 30.5261 36.421 30.6051C36.2815 30.7685 36.1634 30.9492 36.0698 31.1426C35.9012 31.3253 35.6272 31.2621 35.4516 31.4131C35.42 31.796 34.995 31.7152 34.7491 31.8382C34.7491 31.8839 34.7877 31.8944 34.8123 31.9331C34.872 31.958 34.9379 31.9636 35.0009 31.9492C35.0639 31.9347 35.1208 31.9008 35.1636 31.8523C35.5148 31.9436 35.427 31.5009 35.6237 31.3745C35.7888 31.3499 35.9503 31.2058 36.1225 31.3183C36.2867 31.5535 36.3557 31.8422 36.3156 32.1263C36.1225 32.316 36.2208 32.6286 36.0838 32.8535C36.1154 33.117 35.7923 33.2364 35.8344 33.4999C35.7751 33.5524 35.7052 33.5918 35.6296 33.6154C35.5539 33.639 35.4741 33.6463 35.3954 33.6369C34.7532 33.3939 34.0808 33.2402 33.3968 33.1802C33.3691 33.1909 33.3458 33.2106 33.3305 33.236C33.3153 33.2615 33.3089 33.2913 33.3125 33.3207Z" fill="white"/>
<path d="M21.6263 29.386C21.6474 29.242 21.4331 29.2033 21.4577 29.0593C21.6087 28.7642 21.4577 28.2864 21.8581 28.1564C21.7325 28.2014 21.5986 28.2184 21.4657 28.2063C21.3329 28.1942 21.2043 28.1532 21.0889 28.0862L21.2083 28.2794C21.2083 28.8064 21.4331 29.3087 21.3207 29.8462C21.4261 29.6917 21.4261 29.4844 21.6263 29.386Z" fill="white"/>
<path d="M33.291 30.3909C33.2899 30.5285 33.3358 30.6624 33.421 30.7703C33.7301 30.7247 33.6001 31.1568 33.8846 31.1217C34.0462 31.0725 33.8846 30.9355 33.9373 30.8336C33.8952 30.5912 33.6598 30.5666 33.4983 30.4226C33.4807 30.3769 33.4983 30.3347 33.5369 30.2961C33.421 30.2293 33.3683 30.3031 33.291 30.3909Z" fill="white"/>
<path d="M36.6631 37.7334L36.7755 37.5823C37.2759 37.2247 37.7458 36.8264 38.1805 36.3914H38.2402C38.1419 36.3597 38.0189 36.4546 37.9101 36.3914C37.6817 36.286 37.6466 36.0857 37.6466 35.8539L36.6631 34.8386L36.6104 34.6875C36.5278 34.8624 36.4079 35.0171 36.2592 35.1407C36.2592 35.2707 36.2205 35.4639 36.3751 35.5482C36.6912 35.6536 37.1057 35.8644 37.1794 36.2508C37.0495 36.6022 36.3786 36.9218 36.7931 37.3048C36.9336 37.5015 36.6104 37.5718 36.6631 37.7334Z" fill="white"/>
<path d="M25.4446 29.5021C25.3674 29.4599 25.3568 29.4704 25.2936 29.5407C25.2548 29.5531 25.213 29.5531 25.1742 29.5407C25.1742 29.0875 24.6649 29.358 24.4717 29.1191C24.6965 29.5337 24.8229 30.0044 25.0442 30.419C25.1917 30.7703 25.5079 31.0759 25.6554 31.4378C25.8578 31.1486 26.0884 30.8803 26.3438 30.6368C26.3523 30.5821 26.3498 30.5264 26.3365 30.4727C26.3232 30.419 26.2995 30.3685 26.2666 30.3241C26.1963 30.1555 26.2666 29.9166 26.1331 29.7726C25.9294 29.8463 26.2068 30.0536 26.1331 30.1766C26.1145 30.1866 26.0938 30.1918 26.0727 30.1918C26.0516 30.1917 26.0308 30.1864 26.0123 30.1762C25.9938 30.1661 25.9781 30.1515 25.9667 30.1338C25.9553 30.116 25.9485 30.0957 25.9469 30.0747C25.8571 30.055 25.7738 30.0122 25.7055 29.9506C25.6371 29.8891 25.586 29.8107 25.557 29.7234C25.6765 29.6215 25.4868 29.5794 25.4446 29.5021Z" fill="white"/>
<path d="M39.1147 18.8397C39.2869 18.8783 39.336 19.0786 39.466 19.191C40.0455 19.5002 40.1966 20.1255 40.7094 20.4768C40.9974 21.081 41.6613 21.5307 41.6859 22.2333C42.4223 23.7887 42.8346 25.4776 42.8977 27.1973L42.838 27.2922C42.9066 27.2895 42.9723 27.2635 43.0241 27.2184L45.3318 27.1798C45.1808 26.9549 45.2405 26.6282 45.2019 26.3577C44.8963 22.7989 43.3789 19.7531 40.9869 17.0691C40.4934 17.6726 39.9619 18.2441 39.3957 18.78L39.1147 18.8397Z" fill="white"/>
<path d="M30.952 24.7595C31.1347 24.8649 31.2365 24.6752 31.3946 24.633C31.6055 24.6879 31.7922 24.8115 31.925 24.9843C32.069 25.0476 32.206 24.9633 32.3324 24.9141C32.4238 24.2501 33.2527 24.3485 33.4986 23.7231L33.3475 23.7829C33.2843 23.6915 33.1262 23.7302 33.1333 23.5896C33.2671 23.4308 33.4305 23.2995 33.6145 23.2032C32.9144 22.7347 32.1452 22.3791 31.3349 22.1493C31.0118 22.1035 30.6916 22.039 30.376 21.9561C30.527 22.4128 30.376 23.0802 30.4884 23.6107L31.0609 23.8004C31.233 23.5229 31.5983 23.4491 31.7634 23.2032C31.8688 23.1154 31.9882 23.2032 32.069 23.2981C32.0831 23.5244 32.0471 23.7511 31.9636 23.962C31.7494 24.3941 31.2365 24.4468 30.952 24.7595Z" fill="white"/>
<path d="M39.4662 30.131C39.1654 31.2177 38.691 32.2486 38.0612 33.1839C37.7978 33.5352 37.5379 33.9848 37.2007 34.1605L37.9348 34.7999C37.9734 34.7612 37.9348 34.6945 37.9629 34.6418C37.991 34.5891 38.0086 34.431 38.128 34.4486C38.4792 34.4486 38.4792 34.7999 38.6865 35.0072C38.6443 35.3128 38.9113 35.5517 38.8199 35.8327C40.7683 33.7595 41.9075 31.0555 42.0303 28.2128L42.1357 28.0864C41.4332 28.1566 40.6605 28.1074 39.9193 28.118L39.7402 28.0618C39.7461 28.5442 39.7097 29.0261 39.6313 29.5021L39.8912 29.7867C39.923 29.8427 39.935 29.9078 39.9255 29.9714C39.9159 30.0351 39.8853 30.0938 39.8385 30.138C39.7846 30.1786 39.7187 30.2 39.6512 30.1987C39.5837 30.1974 39.5186 30.1736 39.4662 30.131Z" fill="white"/>
<path d="M37.4746 28.009L37.7205 28.2514C37.9664 28.4236 37.8013 28.7784 38.0717 28.926C38.3422 29.0735 38.4932 29.4459 38.6337 29.7164C38.6672 29.6425 38.6908 29.5646 38.704 29.4845C38.8129 29.0454 38.7953 28.5501 38.9323 28.1179C38.4443 28.1884 37.9467 28.1513 37.4746 28.009Z" fill="white"/>
<path d="M32.9262 19.3702C32.0876 19.106 31.2253 18.9236 30.3516 18.8257L30.4323 19.0013V21.1654L30.6431 21.1268C31.9446 21.2684 33.1806 21.7709 34.2118 22.5777L34.268 22.7463C34.6192 22.2439 35.1707 21.8118 35.5922 21.3411L35.9926 21.1057L35.7994 21.0284C34.9494 20.3071 33.976 19.7453 32.9262 19.3702Z" fill="white"/>
<path d="M37.5414 23.059C37.2368 22.5574 36.8838 22.0868 36.4877 21.6538L36.4491 21.7522C35.7114 22.5145 34.9036 23.3085 34.2046 24.0919C34.2497 24.1899 34.3247 24.2711 34.4189 24.3238C34.4505 24.1305 34.5558 23.9725 34.5734 23.7652C34.7596 23.5017 35.0511 23.6668 35.297 23.723C35.6798 23.6352 36.0416 23.8109 36.4315 23.8038C36.723 23.9479 36.7476 24.3167 37.0075 24.4608C37.0813 24.5627 37.0251 24.6821 36.9268 24.7629C37.0075 25.3636 37.278 24.6048 37.6011 24.7629C37.7276 24.8121 37.8857 24.7945 37.9805 24.9315C38.0297 25.181 38.3317 25.1353 38.3317 25.3707C38.3072 25.4901 38.1807 25.5217 38.0964 25.5885C38.1737 25.8274 37.854 25.9784 37.9629 26.2349C38.4266 26.3227 38.4441 25.7852 38.6654 25.5323C38.5769 25.1108 38.4266 24.7048 38.2193 24.3273C37.9594 24.2711 37.7978 23.976 37.5168 23.9022C37.0181 23.6809 37.6082 23.3612 37.5414 23.059Z" fill="white"/>
<path d="M32.3918 32.0172C32.5814 31.8205 32.9854 31.8276 33.0029 31.5431C32.7219 31.4974 32.5814 31.6519 32.3918 31.803C32.3637 31.8627 32.2794 31.9751 32.3918 32.0172Z" fill="white"/>
<path d="M29.5045 40.6106L29.5853 40.4911L29.3394 40.5544C26.2858 40.4113 23.3884 39.1627 21.187 37.0413L21.1624 37.1361L19.5186 38.7908C21.8993 40.9365 24.8642 42.3257 28.0363 42.7817C28.5689 42.8124 29.0991 42.8758 29.6239 42.9714L29.5045 42.7817V40.6106Z" fill="white"/>
<path d="M30.9275 33.514C31.1382 33.5526 30.9907 33.7775 31.1417 33.8653C31.4684 33.7599 31.7213 34.1428 31.9812 33.9039C31.9812 33.528 32.3922 33.5526 32.6205 33.4648C32.9717 33.247 33.3897 32.9624 33.3511 32.4811L33.2913 32.4109C33.042 32.4109 32.9155 32.6006 32.7364 32.7622C32.5572 32.9238 32.3851 32.5233 32.213 32.6111C32.213 32.6498 32.2622 32.6673 32.2938 32.6849C32.3213 32.7173 32.3364 32.7584 32.3364 32.8008C32.3364 32.8433 32.3213 32.8844 32.2938 32.9168C32.0234 33.1627 31.8969 32.7938 31.637 32.8184V32.9168C31.637 32.973 31.637 33.0573 31.5457 33.0257C31.3806 32.7622 31.0539 32.8606 30.8923 32.6287C30.794 32.5725 30.6956 32.6287 30.6254 32.7095C30.5657 32.8289 30.3128 32.7095 30.376 32.9027C30.1758 32.973 30.1547 33.1838 30.0248 33.3173C29.7754 33.2716 29.6735 33.5526 29.4312 33.5491C29.4557 33.5948 29.4312 33.6756 29.5014 33.6826C29.6477 33.7443 29.8083 33.7637 29.965 33.7388C30.2074 33.3383 30.5903 33.658 30.9275 33.514Z" fill="white"/>
<path d="M20.6673 36.4615C20.3897 36.2351 20.1398 35.9769 19.9226 35.6921C19.7824 35.6554 19.6508 35.5912 19.5356 35.5031C19.4204 35.415 19.3239 35.3049 19.2517 35.1792C19.1709 35.0878 19.2517 34.9298 19.1569 34.8665L19.0585 34.986C18.7776 35.1195 18.6792 34.8314 18.486 34.7155C18.2366 34.5784 18.3596 34.1077 18.0189 34.192C17.8959 34.192 17.8538 34.0409 17.773 33.9637C17.4639 33.9918 17.3831 33.651 17.2145 33.4824C17.1829 33.5561 17.2145 33.651 17.1197 33.6967C16.8 33.7704 16.6876 33.3805 16.4699 33.2154C16.4137 33.24 16.375 33.3102 16.2942 33.2927C16.197 33.208 16.1176 33.1046 16.0609 32.9888C16.0042 32.873 15.9713 32.7469 15.9641 32.6181C15.7006 32.3195 15.8236 31.8523 15.8692 31.4904C15.9184 31.3956 16.0589 31.3429 16.0308 31.2199C16.1046 31.0513 16.2802 31.0372 16.4488 31.0302C16.5141 31.0654 16.5688 31.1176 16.6068 31.1813C16.7122 31.1145 16.9581 31.1813 16.8562 30.9564C17.0092 30.8468 17.1887 30.7801 17.3761 30.7632C17.4758 30.94 17.5935 31.106 17.7273 31.2586L17.6184 31.0864C17.4117 30.2904 17.2823 29.4763 17.2321 28.6554C17.2321 28.6062 17.1302 28.5816 17.1899 28.5359V28.5605C17.1858 28.4102 17.1941 28.2598 17.2145 28.1108L17.0002 28.1916H14.7769C14.8917 30.6512 15.5605 33.053 16.7333 35.2178C17.3023 36.2718 18.1383 37.2203 18.8408 38.204L20.4319 36.5563L20.6673 36.4615Z" fill="white"/>
<path d="M27.9207 34.5117C28.0873 34.3369 28.2932 34.2044 28.5213 34.1252C27.8188 34.2693 27.1866 33.7739 26.5789 33.4753C26.2277 33.2224 25.7886 33.0116 25.5814 32.6287C25.1036 33.221 24.5709 33.7668 23.9902 34.2587C24.2361 34.2587 24.3731 34.5468 24.5838 34.6698C25.7816 35.6675 27.2744 36.1488 28.6618 36.4931L28.2825 36.3139C27.9944 35.9872 27.58 35.6113 27.58 35.1476C27.8575 35.0457 27.8258 34.7295 27.9207 34.5117Z" fill="white"/>
<path d="M30.4142 39.7463C31.0043 39.546 31.6928 39.5776 32.3321 39.4722C32.1961 39.4417 32.0732 39.3692 31.9808 39.265C31.605 39.2404 31.4294 38.8504 31.3099 38.5623C31.2537 38.3516 31.4013 38.1724 31.4891 37.9897C31.3275 37.6595 30.8322 37.8984 30.5442 37.7824C30.4634 37.7157 30.4072 37.6208 30.2983 37.6033L30.4142 37.7824C30.4542 38.4364 30.4542 39.0923 30.4142 39.7463Z" fill="white"/>
<path d="M38.8726 36.8726C38.6443 37.3082 38.1701 37.5752 37.7767 37.9265C37.2568 38.4464 36.4103 38.5553 36.1434 39.3106C35.8659 39.5636 35.7711 39.9641 35.3812 40.1081C35.2337 40.491 34.8262 40.4594 34.5944 40.744C33.9235 41.3447 33.4915 40.3646 32.8838 40.2451L31.6615 40.4594C31.2365 40.4594 30.815 40.6105 30.4146 40.4594C30.4743 41.2956 30.4743 42.1351 30.4146 42.9713L30.5656 42.8729C34.3069 42.722 37.868 41.225 40.5937 38.6572L38.9112 37.0517L38.8726 36.8726Z" fill="white"/>
<path d="M42.9363 28.1179L42.8028 28.0195L42.8801 28.2373C42.7661 30.8049 41.8824 33.2787 40.3441 35.3373C40.0794 35.7212 39.7639 36.0675 39.4062 36.3666C40.0452 36.9043 40.6406 37.4917 41.1871 38.1232L41.2503 38.0037C43.6859 35.3197 45.0975 31.8628 45.2369 28.2409L45.3353 28.0511L45.2159 28.1074L42.9363 28.1179Z" fill="white"/>
<path d="M17.2529 27.3205L17.2107 27.0078C17.3438 24.5428 18.1759 22.1666 19.6097 20.1573C19.961 19.7498 20.2314 19.2404 20.681 18.9347C20.1612 18.4464 19.6273 17.8808 19.0723 17.3433L19.0161 17.1255C16.7688 19.5348 15.3329 22.5878 14.91 25.8555C14.8222 26.3368 14.8819 26.8322 14.7871 27.3205C15.6077 27.2537 16.4323 27.2537 17.2529 27.3205Z" fill="white"/>
<path d="M23.4703 21.7136C22.3752 22.9745 21.6335 24.503 21.3206 26.1436C21.2328 26.5266 21.282 26.9727 21.1274 27.3346C21.4522 27.236 21.7966 27.2215 22.1285 27.2924C21.9494 27.1976 22.0969 26.9657 21.9915 26.8392C21.9669 26.6425 21.9353 26.3931 22.1285 26.2631C22.1074 25.9364 22.4552 25.7677 22.4797 25.4726C22.5676 25.1213 22.9504 25.3602 23.1331 25.1846C23.2525 25.1213 23.1331 25.0089 23.1331 24.9211C23.2911 24.7033 23.5405 24.7138 23.7302 24.5944C23.863 24.3686 24.0471 24.1772 24.2676 24.0358C24.7453 24.0358 24.7558 23.3788 25.2089 23.3613C24.5947 22.8499 24.0139 22.2995 23.4703 21.7136Z" fill="white"/>
<path d="M26.2661 31.9928C27.0935 32.6841 28.0901 33.1424 29.1534 33.3207C29.206 33.1064 29.1217 32.8359 29.2341 32.6497C29.3465 32.4636 29.5257 32.4811 29.6873 32.5127C29.7101 32.5094 29.7317 32.5004 29.75 32.4865C29.7684 32.4727 29.783 32.4544 29.7925 32.4334C29.802 32.4124 29.806 32.3893 29.8041 32.3663C29.8023 32.3434 29.7947 32.3212 29.7821 32.3019C29.5538 32.2598 29.6556 32.0033 29.5749 31.8593C29.5749 31.7785 29.7189 31.7961 29.6873 31.6907C29.5257 31.5607 29.7645 31.4202 29.6311 31.2832C29.6697 31.2586 29.7013 31.2094 29.7399 31.1813C29.2552 31.385 28.7424 31.0899 28.3139 30.9002C28.1031 30.7773 27.8011 30.6613 27.7554 30.4014C27.3971 30.9635 26.7438 31.4729 26.2661 31.9928Z" fill="white"/>
<path d="M22.4554 28.153L22.3922 28.5781C22.2974 28.8275 21.9848 28.6413 21.8407 28.8099C21.6967 28.9785 21.8407 29.1366 21.9356 29.2631C21.7143 29.776 22.4414 29.9376 22.4308 30.3978C22.6556 30.6894 22.3992 31.1005 22.7224 31.3604C22.7926 31.8804 22.6486 32.583 23.1052 32.9905L23.1825 33.4894C23.2738 33.8407 22.7715 33.7423 22.8313 34.0479C22.9296 34.0023 22.9507 34.1287 22.9577 34.1604C23.5921 33.4113 24.2775 32.707 25.009 32.0525L24.7069 31.7469C24.1276 30.9181 23.7105 29.9871 23.4776 29.0031L23.2457 28.8872C23.1963 29.1193 23.1587 29.3538 23.1333 29.5898L23.0525 29.6847C22.8875 29.6847 22.7821 29.5406 22.6381 29.4528C22.6029 29.365 22.5151 29.221 22.6381 29.1507C22.7066 29.1458 22.7747 29.1644 22.8313 29.2034C22.9015 29.1191 22.8699 28.9926 22.912 28.8802C22.9331 28.687 22.7645 28.5289 22.8839 28.3427C23.035 28.3427 23.1474 28.5113 23.2106 28.6132C23.3652 28.6624 23.4846 28.5359 23.611 28.4797C23.611 28.3427 23.8007 28.16 23.611 28.0792C23.6936 27.7708 23.6936 27.4461 23.611 27.1377C23.5267 26.8742 23.2317 26.9199 23.0139 26.9445C22.3676 27.1517 23.1193 27.6471 22.9612 28.037C22.8629 28.2794 22.624 28.0616 22.4554 28.153Z" fill="white"/>
<path d="M26.9791 29.7339C26.9197 29.9366 26.8055 30.1189 26.6489 30.2608H26.6946C26.8843 30.1238 27.0248 29.8779 27.2671 29.8638L26.9791 29.7339Z" fill="white"/>
<path d="M29.5048 22.0437C28.2133 22.1562 27.0041 22.7254 26.0942 23.6492H26.2663C26.463 23.8424 26.7721 23.8002 26.9162 24.0602C26.9899 24.2007 26.7792 24.1867 26.7897 24.3061C26.8319 24.3378 26.8845 24.3448 26.9162 24.401C27.0672 24.4537 27.0356 24.3132 27.0953 24.2499C27.292 24.0532 27.3271 24.4431 27.5168 24.4431C27.5476 24.4182 27.5832 24.3998 27.6213 24.3889C27.6595 24.3781 27.6994 24.375 27.7387 24.3799C27.7781 24.3848 27.816 24.3976 27.8503 24.4176C27.8846 24.4375 27.9145 24.4641 27.9383 24.4958C28.0682 24.3834 28.3422 24.4958 28.3809 24.2815C28.6302 24.0181 28.4933 23.6105 28.8586 23.4419C28.9885 23.5157 28.8586 23.6351 28.9007 23.7476C29.1466 23.8494 29.4276 23.5368 29.6243 23.7897C29.485 23.2188 29.4446 22.6283 29.5048 22.0437Z" fill="white"/>
<path d="M21.2821 18.3341L21.3207 18.2216C23.5485 16.1343 26.4543 14.9206 29.5047 14.8034L29.4345 14.6137L29.4064 12.692L29.4731 12.4707C26.3631 12.5969 23.3627 13.6544 20.8606 15.506C20.3723 15.8573 19.9403 16.3527 19.4556 16.6443H19.5258C20.1619 17.1523 20.7498 17.718 21.2821 18.3341Z" fill="white"/>
<path d="M29.4696 15.7131C27.2369 15.8278 25.0778 16.5493 23.2245 17.7999C22.7257 18.1512 22.2726 18.5904 21.7598 18.896C22.3534 19.2684 22.8416 19.8937 23.3755 20.3891L23.4317 20.5401C24.7669 19.2919 26.43 18.4498 28.2262 18.1126C28.6448 18.014 29.0761 17.9808 29.5048 18.0142C29.4387 17.249 29.4269 16.48 29.4696 15.7131Z" fill="white"/>
<path d="M29.3783 18.8785C27.4075 19.0434 25.5403 19.8308 24.0464 21.1269C24.654 21.5485 25.195 22.2265 25.7499 22.7148C25.793 22.6586 25.8329 22.5999 25.8694 22.5392C26.5962 21.9705 27.423 21.5428 28.307 21.278C28.7039 21.2393 29.0973 21.0496 29.5118 21.141C29.4275 20.3575 29.4275 19.5672 29.5118 18.7837L29.3783 18.8785Z" fill="white"/>
<path d="M23.8285 35.158L23.7969 35.1018L23.8285 35.2002V35.158Z" fill="white"/>
<path d="M31.9076 12.562C31.3855 12.5313 30.8658 12.4679 30.3516 12.3723C30.4322 13.104 30.4405 13.8418 30.3761 14.575C30.3789 14.5064 30.4049 14.4407 30.4499 14.3888C30.5623 14.3221 30.6536 14.4204 30.6993 14.4977C30.745 14.575 30.759 14.8034 30.6642 14.849C30.759 14.849 30.8082 14.7928 30.8925 14.7928C32.6683 14.9218 34.3929 15.4464 35.9399 16.3281V16.2894C36.249 16.1348 36.6424 15.9381 36.9691 16.2086C37.3519 16.0646 37.4257 16.5353 37.7348 16.5915C37.9453 16.7002 38.13 16.8526 38.2767 17.0386C38.4233 17.2247 38.5284 17.44 38.5848 17.6701C38.6515 17.8141 38.8798 17.916 38.9115 18.0706C39.1679 17.526 39.6772 17.1396 40.1198 16.6653L40.3902 16.5529C38.0649 14.3455 35.0904 12.9461 31.9076 12.562ZM33.4461 14.1956C33.3139 14.3357 33.1448 14.4355 32.9583 14.4833C32.7718 14.5312 32.5756 14.5252 32.3923 14.4661C31.8654 14.5715 31.1278 14.8736 30.7063 14.3326C30.6852 14.2905 30.6396 14.2343 30.6852 14.1956C30.7555 14.0691 30.9381 14.1148 31.0365 14.1535L32.1886 13.6616C32.6487 13.7003 33.1615 13.7565 33.4355 14.1394L33.4461 14.1956ZM37.9666 16.4159C37.5346 16.5283 37.4959 16.0435 37.1622 15.9205C37.115 15.8531 37.0949 15.7703 37.106 15.6887C37.2571 15.506 37.4011 15.8116 37.5662 15.65C37.644 15.6651 37.7169 15.6993 37.7782 15.7496C37.8396 15.7999 37.8874 15.8647 37.9174 15.9381C37.8858 16.1173 38.0966 16.2718 37.9666 16.4159Z" fill="white"/>
</svg>
