<svg width="358" height="123" viewBox="0 0 358 123" fill="none" xmlns="http://www.w3.org/2000/svg">
<path d="M0.03125 62.2305V91.3067H29.104V62.2305H0.03125ZM21.7207 78.3422C21.7207 84.3134 18.5595 86.7264 14.3762 86.7264C10.3965 86.7264 7.40392 84.482 7.40392 78.43V66.9793H9.94344V78.5002C9.94344 82.8241 11.8683 84.6681 14.464 84.6681C17.3126 84.6681 19.1847 82.7714 19.1847 78.5002V66.9793H21.7207V78.3422Z" fill="white"/>
<path d="M30.9102 62.2305V91.3067H59.9828V62.2305H30.9102ZM52.7401 86.4665H50.2041L44.0433 76.6105C42.7043 74.5311 41.5006 72.3676 40.4395 70.1335L40.3517 70.1616C40.4992 72.6204 40.5273 74.9386 40.5273 78.1701V86.4665H38.1669V67.0496H40.9312L47.1237 76.8845C48.4212 78.9092 49.5761 81.0218 50.58 83.2069L50.6678 83.1788C50.4395 80.5831 50.3833 78.2263 50.3833 75.2231V67.0742H52.7401V86.4665Z" fill="white"/>
<path d="M0 93.1045V122.177H29.0762V93.1045H0ZM20.418 114.618C18.5704 116.434 15.5743 117.404 11.8054 117.404C10.2801 117.428 8.75481 117.353 7.2392 117.179V98.0817C9.01234 97.8155 10.8027 97.6804 12.5957 97.6777C16.196 97.6777 18.7601 98.4856 20.4566 100.07C22.2129 101.657 23.2209 103.933 23.2209 107.07C23.2209 110.207 22.1988 112.834 20.418 114.618Z" fill="white"/>
<path d="M12.2932 115.395C11.4472 115.424 10.6003 115.384 9.76074 115.275V99.926C10.7283 99.741 11.7122 99.655 12.6972 99.6695C17.994 99.6695 20.5897 102.522 20.5581 107.155C20.5581 112.399 17.6462 115.423 12.2932 115.395Z" fill="white"/>
<path d="M12.2932 115.395C11.4472 115.424 10.6003 115.384 9.76074 115.275V99.926C10.7283 99.741 11.7122 99.655 12.6972 99.6695C17.994 99.6695 20.5897 102.522 20.5581 107.155C20.5581 112.399 17.6462 115.423 12.2932 115.395Z" fill="white"/>
<path d="M30.9102 93.0732V122.149H59.9828V93.0732H30.9102ZM50.5413 107.541C49.2206 108.946 47.0675 109.649 44.6088 109.649C43.9311 109.67 43.2533 109.613 42.5891 109.476V117.253H40.0847V98.1101C41.6738 97.8258 43.286 97.6906 44.9003 97.7062C47.3801 97.7062 49.1925 98.2857 50.3446 99.3254C50.9113 99.8346 51.3596 100.462 51.6582 101.162C51.9567 101.863 52.0982 102.621 52.0728 103.382C52.0728 105.132 51.5529 106.515 50.5413 107.541Z" fill="white"/>
<path d="M44.6716 107.758C43.9741 107.775 43.2772 107.707 42.5957 107.558V100.013C43.3755 99.8716 44.1671 99.8046 44.9596 99.8132C47.7274 99.8132 49.5258 101.046 49.5258 103.645C49.5258 106.245 47.7239 107.758 44.6716 107.758Z" fill="white"/>
<path d="M0.03125 0.411133V60.3936H59.9997V0.411133H0.03125ZM51.4749 31.6405C50.6354 32.8312 49.6203 33.9412 48.8441 35.153C48.9319 34.1941 49.0443 33.0104 48.6649 32.1006C47.9572 30.1308 47.4856 28.0839 47.2599 26.003V25.1811C47.7482 27.3764 49.9083 28.8902 49.7678 31.3525C49.77 31.9037 49.6883 32.4521 49.5255 32.9787L49.5606 33.0209L49.659 32.9085C49.9786 31.7037 50.1366 30.4287 50.6354 29.3012C51.3379 27.6819 52.2231 26.0451 51.8648 24.0852C52.9747 26.4034 52.6516 29.4838 51.4749 31.6405ZM50.1437 19.1993C50.8561 20.2373 51.2942 21.4387 51.417 22.6917C51.5398 23.9446 51.3434 25.2082 50.8462 26.3648C50.4607 27.3149 50.1907 28.3078 50.0418 29.3223C49.968 29.1466 49.954 28.9078 49.8908 28.7076C49.3288 26.558 47.2915 25.023 46.4521 22.9928C46.1787 22.3254 45.9728 21.6323 45.8374 20.924C46.7331 22.5783 48.9389 23.4319 49.5395 25.2548C49.7854 25.7185 49.7713 26.3086 49.9189 26.7898C49.9351 26.7908 49.9511 26.7855 49.9635 26.775C49.9759 26.7646 49.9838 26.7497 49.9856 26.7336C49.75 24.84 49.7748 22.9232 50.0594 21.0364C50.0418 20.0283 49.947 19.0553 49.3885 18.2791C49.7397 18.4863 49.9013 18.8867 50.1437 19.1993ZM49.1496 18.8305C49.522 20.5095 48.981 22.1463 49.3218 23.8428C48.4085 22.0444 46.4661 21.1979 45.1349 19.7578C44.4163 18.9084 43.9631 17.8665 43.8318 16.7617C44.5975 18.6092 46.6593 19.0167 47.843 20.5657C48.2399 20.9169 48.3699 21.4227 48.6263 21.8302L48.6649 21.788C47.9835 20.3339 47.7552 18.697 47.288 17.148C47.0306 16.4374 46.5594 15.8239 45.9392 15.3918C47.4777 15.722 48.823 17.3447 49.1496 18.8305ZM44.9909 14.9668C46.1676 16.0205 46.6944 17.3728 47.0386 18.7813L47.2283 19.2274C45.5084 17.9794 44.0391 16.4184 42.8974 14.6261L41.5697 13.2808C42.7394 13.7866 43.9933 14.0817 44.9909 14.9773V14.9668ZM22.7605 13.6742C25.0254 12.5652 27.5095 11.976 30.0313 11.9496C33.0467 11.9677 35.9962 12.8336 38.5428 14.4485C41.0894 16.0634 43.1303 18.3622 44.4324 21.082C46.1498 24.5727 46.5248 28.5728 45.4861 32.3219C44.3902 36.5966 40.7935 40.9204 36.6066 42.6802C31.8929 44.9914 25.1911 44.4118 20.9902 41.3981C15.1489 37.3974 12.7569 30.5095 14.5237 23.6883C15.5985 19.6384 18.8195 15.5534 22.7605 13.6742ZM18.138 13.5162C16.9649 14.5453 16.157 15.866 15.2789 17.0673C14.4956 18.0332 13.4981 18.6725 12.6094 19.5014C13.0906 18.5109 13.1082 17.3272 13.7861 16.4175C14.752 14.7315 16.5434 14.1379 18.138 13.5162ZM11.7172 17.1024C12.2469 16.4159 12.9873 15.9223 13.8247 15.6974C12.2476 16.7828 12.346 18.7322 11.8437 20.3549C11.6821 20.9556 11.4046 21.507 11.2676 22.1112L11.3098 22.1428C11.6028 21.419 12.0457 20.7654 12.6094 20.225C13.7369 19.1712 15.4194 18.539 15.9533 17.004C15.9287 19.1396 14.1444 20.8151 12.4408 22.0163C11.7244 22.5984 11.1279 23.3142 10.6846 24.1238C10.6459 23.5899 10.7689 23.0455 10.7302 22.4694C10.537 20.6113 10.3966 18.4863 11.7172 17.1024ZM8.51387 23.474C8.46469 21.5878 9.24446 20.0458 10.3509 18.6408C10.3825 18.6408 10.4071 18.5917 10.4457 18.5987C9.23041 20.4322 10.235 22.7715 10.1858 24.872L10.0242 27.0216C10.0453 27.0216 10.0453 27.1024 10.105 27.0743C10.1626 26.8298 10.2072 26.5824 10.2385 26.3332C10.537 24.598 12.0263 23.3686 13.347 22.1884C13.6279 21.8982 13.855 21.5605 14.0179 21.1909C13.8975 22.0662 13.6502 22.9194 13.2838 23.7234C12.2582 25.7009 10.3649 27.3412 10.0207 29.6243C9.85563 27.4571 8.35932 25.7993 8.51387 23.474ZM7.59009 26.1575C7.69297 25.556 7.86019 24.9672 8.08886 24.4013C7.60062 26.8952 9.27607 28.69 9.82753 30.8572C10.0594 31.6616 10.1191 32.5327 10.4457 33.2949C10.4773 33.2949 10.5019 33.2949 10.523 33.2527C9.70108 30.9696 10.8883 28.8375 12.0755 27.0357C12.3482 26.5372 12.5492 26.0027 12.6726 25.448C12.7991 26.5018 12.5392 27.6855 12.3846 28.7638C12.1001 30.1372 11.6821 31.4403 11.2922 32.775C11.0865 33.6428 11.0686 34.5446 11.2395 35.4199L11.1201 35.3251C10.2455 33.7199 8.52089 32.4624 8.0151 30.7062C7.51601 29.2448 7.37036 27.686 7.59009 26.1575ZM7.5093 31.0328C7.70249 33.6812 10.5476 35.0792 11.8683 37.2675C12.1504 37.7425 12.485 38.1843 12.8658 38.5846C12.7991 38.3036 12.5392 38.0648 12.4443 37.7768C11.9844 36.8045 11.8102 35.7216 11.942 34.6542C12.0685 33.3019 12.6445 32.0479 12.4232 30.6254C13.5788 33.1263 13.2276 36.2453 13.8739 38.9535C14.0425 39.5436 14.3867 40.0704 14.6115 40.6394C12.2301 39.0167 8.99156 37.4782 7.93782 34.4996C7.46364 33.4775 7.41446 32.2095 7.5093 31.0328ZM8.93536 37.1059C10.2596 40.102 13.5824 40.3584 15.8058 42.1884C16.1948 42.5462 16.6338 42.8455 17.1089 43.0771L17.13 43.0525C16.5694 42.5947 16.0773 42.0588 15.6688 41.4614C14.3656 39.6489 14.8223 37.1059 13.8458 35.1389C14.7422 36.1539 15.4929 37.2888 16.0762 38.5109C16.8771 40.4779 17.1791 42.6978 19.0267 44.187C17.0246 43.5302 14.6888 43.7164 12.9255 42.4835C11.0147 41.3173 9.29364 39.3117 8.93536 37.1059ZM12.346 42.7258C14.471 45.1495 17.9659 44.3416 20.7759 44.9703C21.1623 45.0836 21.5641 45.1357 21.9666 45.1249C21.6154 44.9071 21.1588 44.9317 20.79 44.7385C18.5701 43.9552 18.2434 41.5527 17.0351 39.9299C18.5771 40.9521 19.8697 42.336 21.2957 43.6707C22.3179 44.5629 23.5472 44.9773 24.8398 45.2443C24.5307 45.3567 24.1373 45.3216 23.7861 45.4129C21.4643 45.9889 18.8686 46.9233 16.4099 46.0803C14.6743 45.5165 13.2203 44.31 12.346 42.7083V42.7258ZM41.229 48.3669C38.83 49.2626 36.3291 48.3282 34.457 46.9057C33.7194 46.4245 33.0169 45.722 32.0439 45.7782C31.7085 45.7603 31.3724 45.7922 31.0464 45.873C32.9174 46.7519 34.6273 47.9393 36.1043 49.3855C35.8206 49.6862 35.5141 49.9645 35.1876 50.2179C33.7018 48.6127 32.0263 47.0567 30.1999 46.1646C29.8341 46.2487 29.4858 46.3961 29.1707 46.6001C27.5926 47.5683 26.2007 48.8115 25.0611 50.2706L24.1022 49.4803C25.5678 47.9808 27.2889 46.7546 29.1848 45.859C27.3653 45.2864 26.1746 46.8109 24.7907 47.5871C23.1819 48.7076 20.8602 49.2345 18.9073 48.4617C17.8122 48.0837 16.8408 47.4147 16.0973 46.5263C17.6358 47.5801 19.9189 47.696 21.6575 47.0111C24.0004 45.9924 26.4275 44.7069 29.248 45.3216C29.6906 45.3216 30.1226 45.7712 30.5371 45.3953C32.655 44.8923 34.8834 45.173 36.8103 46.1856L38.6719 46.9268C40.4001 47.566 42.6375 47.3939 44.1163 46.3332C43.3593 47.2598 42.3597 47.9578 41.229 48.3493V48.3669ZM43.8001 45.9081C41.1061 46.9232 38.398 45.6798 35.8163 45.2619L35.321 45.1986C36.5539 44.9211 37.7517 44.5523 38.7352 43.6637C40.1788 42.2587 41.4679 40.8537 43.0731 39.7473C41.8823 41.2752 41.7594 43.4459 39.7924 44.4294C39.3007 44.749 38.6895 44.8052 38.1837 45.0476C38.9038 45.0476 39.5571 44.8052 40.2701 44.735C42.908 44.324 45.9252 44.735 47.7728 42.4975C47.0843 44.0079 45.3702 45.3216 43.8001 45.873V45.9081ZM45.2929 43.1684C43.9231 43.5372 42.4514 43.6567 41.1131 44.1098C43.3751 42.1674 43.2487 39.1642 44.7591 36.8776C45.2031 36.2042 45.6839 35.5558 46.1992 34.9352C45.2824 36.7828 45.6793 39.1712 44.6221 40.9626C44.1893 41.6993 43.6387 42.3602 42.9923 42.919C43.203 42.919 43.3892 42.7294 43.5683 42.6064C45.2894 40.8994 47.5269 40.4182 49.3815 39.0272C50.1443 38.4541 50.7487 37.6962 51.1377 36.8249C50.7794 39.6243 47.9589 42.2833 45.3105 43.1333L45.2929 43.1684ZM48.693 38.3317C47.6393 39.0342 46.5504 39.6735 45.5318 40.4638V40.3725C47.1019 37.7662 46.3326 34.1905 47.288 31.3314L47.6393 30.376C47.4391 32.1533 48.2118 33.6672 48.1626 35.455C48.1036 36.4928 47.7649 37.4953 47.1827 38.3563H47.2775C48.0467 37.3518 48.6474 36.2805 49.543 35.3181C50.9305 33.9763 52.353 32.6029 52.5322 30.7518C53.0134 33.8147 51.2817 36.5369 48.693 38.2966V38.3317Z" fill="white"/>
<path d="M29.5678 25.9817C29.4473 26.1445 29.2953 26.2815 29.121 26.3847C28.9467 26.4879 28.7534 26.5551 28.5527 26.5824C28.4508 26.7088 28.4754 26.9898 28.226 26.9652C28.1488 27.1408 27.8748 27.2462 27.9802 27.5026C27.9033 27.8039 27.8574 28.1123 27.8432 28.4229C27.369 28.7144 27.4919 28.0295 27.2706 27.8855L27.1863 28.0189C27.095 28.0435 27.0283 27.9873 26.9616 27.9241C26.9235 27.9008 26.8797 27.8885 26.8351 27.8885C26.7905 27.8885 26.7467 27.9008 26.7087 27.9241C26.6033 28.0997 26.4452 28.2437 26.4839 28.4826C26.4382 28.6266 26.1958 28.5774 26.2274 28.7285C26.4995 28.7171 26.7699 28.6807 27.0353 28.6196C27.2215 28.6652 27.3866 28.5318 27.5552 28.5247C27.6149 28.5564 27.6957 28.6196 27.6676 28.7144H27.7483C27.8097 28.6744 27.8556 28.6147 27.8786 28.5451C27.9016 28.4756 27.9002 28.4003 27.8748 28.3316C27.8748 28.163 28.0785 28.163 28.1874 28.1138C28.2893 28.163 28.226 28.2648 28.2436 28.3491C28.5949 28.4826 28.1558 28.746 28.1066 28.9357C28.0574 29.1254 28.1066 29.4345 27.8045 29.3853C27.7763 29.3771 27.7524 29.3582 27.738 29.3326C27.7235 29.307 27.7197 29.2767 27.7273 29.2483H27.6851C27.6864 29.321 27.7074 29.3921 27.7457 29.4539C27.784 29.5157 27.8383 29.566 27.9029 29.5996C28.1207 29.4169 28.1312 29.1043 28.4544 29.0657C28.6194 28.89 28.3806 28.6196 28.63 28.4756C29.0444 28.4756 29.487 28.2894 29.8172 28.6231C29.7926 28.7706 29.7399 28.8374 29.8593 28.9533C29.7995 29.1495 29.7016 29.3321 29.5713 29.4907C29.5904 29.5435 29.5925 29.601 29.5774 29.6552C29.5623 29.7093 29.5307 29.7574 29.487 29.7927C29.3781 30.281 28.8196 30.0492 28.493 30.2178C28.9985 30.59 29.6248 30.7604 30.2492 30.6954C30.6005 30.6954 30.4424 30.2564 30.6005 30.0667C30.7094 29.5082 31.2257 29.8911 31.5383 29.7365C31.671 29.5075 31.7615 29.2565 31.8052 28.9954C31.7104 28.9319 31.6384 28.8396 31.5998 28.7321C31.5612 28.6247 31.5582 28.5077 31.591 28.3983C31.4575 28.2121 31.4716 27.8749 31.173 27.8433C31.1571 27.8123 31.1519 27.7768 31.1583 27.7425C31.1646 27.7082 31.1822 27.677 31.2081 27.6537C31.2081 27.478 31.3732 27.4183 31.4224 27.3024C31.2397 27.183 31.2889 26.9195 31.303 26.765C30.9904 26.8563 30.9517 26.4454 30.7269 26.3576C30.6707 26.1749 30.4705 26.1433 30.3124 26.1117C29.9296 26.2943 29.8664 25.8237 29.5783 25.7113C29.5467 25.6234 29.48 25.497 29.5783 25.4267C29.6767 25.3565 29.9296 25.4267 30.0806 25.3986L29.9436 25.3284C29.8172 25.1844 29.5397 25.2722 29.3711 25.3284C29.5362 25.4935 29.4695 25.7815 29.5678 25.9817Z" fill="white"/>
<path d="M30.3758 18.374C30.6819 18.3284 30.9938 18.3391 31.296 18.4056C32.8501 18.6126 34.3273 19.2068 35.5918 20.1338C35.4206 19.9804 35.2985 19.7801 35.2405 19.5577C35.2512 19.5434 35.2661 19.5328 35.283 19.5271C35.2999 19.5215 35.3182 19.5211 35.3354 19.5261C35.3354 19.2767 35.0895 19.1503 35.0509 18.9255C35.069 18.8968 35.0958 18.8746 35.1273 18.862C35.1588 18.8494 35.1935 18.847 35.2265 18.8552C35.4872 19.1054 35.7225 19.3807 35.929 19.6772C36.1046 19.6069 36.2486 19.7193 36.3786 19.8106C36.6069 19.9476 36.4664 20.2462 36.642 20.4042C36.6736 20.8749 37.2461 21.1419 37.218 21.6125C37.218 21.7214 37.3585 21.6371 37.4077 21.6933L37.8854 22.2799C37.8691 22.3068 37.8583 22.3366 37.8537 22.3677C37.8491 22.3989 37.8507 22.4306 37.8586 22.461C37.8664 22.4915 37.8803 22.52 37.8994 22.545C37.9185 22.57 37.9424 22.591 37.9697 22.6066C38.184 22.7084 38.321 22.4344 38.5177 22.4731C38.8268 22.6487 38.4685 22.8559 38.5001 23.0491C38.6195 23.0491 38.7741 22.9543 38.8689 23.0737C38.9075 23.2493 38.7249 23.3617 38.6511 23.4741C38.6511 23.6498 38.7951 23.6111 38.9251 23.6498C38.9583 23.6524 38.9906 23.6625 39.0193 23.6794C39.0481 23.6962 39.0727 23.7194 39.0913 23.7471C39.1099 23.7748 39.122 23.8063 39.1266 23.8393C39.1313 23.8724 39.1285 23.906 39.1183 23.9378C39.5152 24.3522 38.9989 24.8018 39.1885 25.2409C39.2313 25.3775 39.2341 25.5234 39.1968 25.6615C39.1595 25.7996 39.0835 25.9242 38.9778 26.0207C38.9778 26.3719 38.6652 26.5897 38.5422 26.8847L38.1348 26.9655C37.917 27.1798 38.321 27.4467 38.0997 27.5802L38.9989 27.5978L38.9005 27.5029C38.8341 27.3164 38.8103 27.1173 38.831 26.9203C38.8516 26.7234 38.9162 26.5336 39.0199 26.3649C39.1044 26.0478 39.2486 25.7497 39.445 25.4868C39.5011 25.4868 39.603 25.3673 39.6522 25.4868C39.6817 25.7692 39.6343 26.0544 39.5152 26.3122C39.7751 26.6634 39.74 27.1587 39.7611 27.6118C40.5549 27.5626 41.3311 27.5486 42.1074 27.5591L42.0372 27.4046C41.9479 25.9716 41.5904 24.5681 40.9834 23.2669C40.8183 23.2669 40.6954 23.4109 40.5057 23.3617C40.4744 23.3497 40.4478 23.3277 40.4301 23.2992C40.4123 23.2707 40.4044 23.2371 40.4074 23.2037C40.1346 22.8618 39.8426 22.5358 39.5328 22.2272C39.1183 22.2658 38.9356 21.7952 38.5703 21.746C38.2437 21.6125 38.4685 21.0821 37.9943 21.2297C37.8725 21.1889 37.7628 21.1184 37.6751 21.0246C37.5874 20.9307 37.5245 20.8165 37.492 20.6923C37.5134 20.4806 37.4834 20.267 37.4045 20.0695C37.3256 19.8719 37.2002 19.6964 37.0389 19.5577C36.7474 19.4524 36.6315 19.8352 36.3364 19.772C36.1784 19.6912 36.2486 19.484 36.1994 19.3505C36.1503 19.217 36.0098 19.1433 36.0343 18.9817C36.4102 18.4864 35.5777 18.497 35.7604 18.0087C35.7112 17.6575 35.3529 17.517 35.1703 17.2395C33.9476 16.6717 32.6442 16.2973 31.3066 16.1296C30.9553 16.0804 30.6427 16.1542 30.3477 15.9961L30.4249 16.1436C30.3968 16.8883 30.4495 17.6786 30.3758 18.374Z" fill="white"/>
<path d="M29.2972 37.8572C27.4219 37.7501 25.6236 37.0751 24.1409 35.9219C24.1901 36.1115 24.443 36.238 24.3727 36.4733C24.2357 36.6946 23.9583 36.6981 23.737 36.6946C23.2768 36.6173 22.9432 36.9651 22.5146 37.0107C22.1212 37.1302 21.9842 36.6595 21.626 36.6946C23.8459 38.63 26.3854 39.8558 29.3534 40.0069L29.5782 40.1579L29.4799 39.8875V37.78L29.2972 37.8572Z" fill="white"/>
<path d="M18.0651 28.6372L18.2373 30.1054C18.3075 30.6744 18.5569 31.2188 18.5393 31.7773C18.6271 31.6579 18.5745 31.4261 18.7887 31.3944C18.7009 31.2188 18.9573 31.0643 18.8133 30.9132C18.827 30.5169 18.9901 30.1405 19.2699 29.8595C19.6774 29.8595 19.7055 29.3045 20.1164 29.2835C20.3237 29.2835 20.4501 29.5539 20.5414 29.6347C20.4379 29.4623 20.3697 29.2711 20.3408 29.0721C20.3118 28.8731 20.3227 28.6703 20.3728 28.4756L20.1972 28.5564C19.4535 28.586 18.7087 28.5707 17.9668 28.5107L18.0651 28.6372Z" fill="white"/>
<path d="M21.1839 19.7715V19.9225L20.3198 21.0219C18.9148 22.9608 18.2334 25.2088 18.0332 27.6535L20.225 27.6113L20.4322 27.6921C20.3444 27.6359 20.3655 27.5411 20.3374 27.4603C20.4656 25.2249 21.3657 23.1032 22.8839 21.4575C22.2749 20.9399 21.7065 20.3762 21.1839 19.7715Z" fill="white"/>
<path d="M33.3125 33.6774C33.6005 33.8284 33.9482 33.8389 34.2538 33.9654C34.5243 34.0356 34.7105 34.3728 35.0476 34.2675C35.3392 34.1094 35.8169 34.3658 36.0101 34.0602C35.9784 33.7652 36.2349 33.5474 36.3613 33.2945L36.4526 33.2699C36.6142 33.4385 36.6072 33.6879 36.6774 33.8706C36.9022 33.6317 37.0779 33.3648 37.2781 33.1189C37.8209 32.3817 38.2168 31.5469 38.4442 30.6602C38.2308 30.6693 38.0195 30.7059 37.8155 30.769C37.5836 30.769 37.3027 30.892 37.113 30.7304C37.0427 30.6707 36.99 30.7655 37.0041 30.8288C36.9198 30.9482 36.839 31.0992 36.6528 31.043C36.4667 30.9868 36.5088 30.8288 36.4597 30.7164C36.4615 30.8 36.4484 30.8832 36.421 30.9622C36.2815 31.1256 36.1634 31.3062 36.0698 31.4996C35.9012 31.6823 35.6272 31.6191 35.4516 31.7701C35.42 32.153 34.995 32.0722 34.7491 32.1951C34.7491 32.2408 34.7877 32.2513 34.8123 32.2899C34.872 32.3149 34.9379 32.3205 35.0009 32.306C35.0639 32.2915 35.1208 32.2577 35.1636 32.2092C35.5148 32.3005 35.427 31.8579 35.6237 31.7315C35.7888 31.7069 35.9503 31.5629 36.1225 31.6753C36.2867 31.9104 36.3557 32.1991 36.3156 32.4831C36.1225 32.6728 36.2208 32.9854 36.0838 33.2102C36.1154 33.4736 35.7923 33.5931 35.8344 33.8565C35.7751 33.909 35.7052 33.9484 35.6296 33.972C35.5539 33.9956 35.4741 34.0029 35.3954 33.9935C34.7532 33.7505 34.0808 33.5969 33.3968 33.5369C33.3691 33.5476 33.3458 33.5672 33.3305 33.5927C33.3153 33.6181 33.3089 33.6479 33.3125 33.6774Z" fill="white"/>
<path d="M21.6263 29.743C21.6474 29.599 21.4331 29.5603 21.4577 29.4163C21.6087 29.1213 21.4577 28.6436 21.8581 28.5136C21.7325 28.5586 21.5986 28.5756 21.4657 28.5635C21.3329 28.5513 21.2043 28.5103 21.0889 28.4434L21.2083 28.6365C21.2083 29.1634 21.4331 29.6657 21.3207 30.2031C21.4261 30.0486 21.4261 29.8413 21.6263 29.743Z" fill="white"/>
<path d="M33.291 30.7476C33.2899 30.8852 33.3358 31.019 33.421 31.1269C33.7301 31.0813 33.6001 31.5133 33.8846 31.4782C34.0462 31.429 33.8846 31.292 33.9373 31.1902C33.8952 30.9478 33.6598 30.9232 33.4983 30.7792C33.4807 30.7336 33.4983 30.6914 33.5369 30.6528C33.421 30.586 33.3683 30.6598 33.291 30.7476Z" fill="white"/>
<path d="M36.6631 38.0893L36.7755 37.9382C37.2759 37.5807 37.7458 37.1824 38.1805 36.7475H38.2402C38.1419 36.7159 38.0189 36.8107 37.9101 36.7475C37.6817 36.6421 37.6466 36.4419 37.6466 36.2101L36.6631 35.195L36.6104 35.0439C36.5278 35.2188 36.4079 35.3735 36.2592 35.4971C36.2592 35.627 36.2205 35.8202 36.3751 35.9045C36.6912 36.0099 37.1057 36.2206 37.1794 36.607C37.0495 36.9583 36.3786 37.2779 36.7931 37.6608C36.9336 37.8574 36.6104 37.9277 36.6631 38.0893Z" fill="white"/>
<path d="M25.4446 29.8594C25.3674 29.8173 25.3568 29.8278 25.2936 29.8981C25.2548 29.9104 25.213 29.9104 25.1742 29.8981C25.1742 29.4449 24.6649 29.7154 24.4717 29.4766C24.6965 29.891 24.8229 30.3617 25.0442 30.7762C25.1917 31.1274 25.5079 31.433 25.6554 31.7948C25.8578 31.5057 26.0884 31.2374 26.3438 30.9939C26.3523 30.9393 26.3498 30.8836 26.3365 30.8299C26.3232 30.7762 26.2995 30.7257 26.2666 30.6813C26.1963 30.5127 26.2666 30.2739 26.1331 30.1299C25.9294 30.2036 26.2068 30.4109 26.1331 30.5338C26.1145 30.5438 26.0938 30.549 26.0727 30.549C26.0516 30.5489 26.0308 30.5436 26.0123 30.5335C25.9938 30.5233 25.9781 30.5087 25.9667 30.491C25.9553 30.4733 25.9485 30.453 25.9469 30.4319C25.8571 30.4122 25.7738 30.3695 25.7055 30.3079C25.6371 30.2463 25.586 30.168 25.557 30.0807C25.6765 29.9788 25.4868 29.9367 25.4446 29.8594Z" fill="white"/>
<path d="M39.1143 19.199C39.2864 19.2376 39.3355 19.4378 39.4655 19.5502C40.0451 19.8593 40.1961 20.4846 40.7089 20.8358C40.9969 21.4399 41.6608 21.8895 41.6854 22.592C42.4218 24.1471 42.8341 25.8357 42.8972 27.5552L42.8375 27.65C42.9061 27.6473 42.9718 27.6213 43.0236 27.5762L45.3313 27.5376C45.1803 27.3128 45.24 26.9861 45.2014 26.7157C44.8958 23.1575 43.3784 20.1122 40.9864 17.4287C40.4929 18.0321 39.9614 18.6035 39.3953 19.1393L39.1143 19.199Z" fill="white"/>
<path d="M30.952 25.1174C31.1347 25.2228 31.2365 25.0331 31.3946 24.991C31.6055 25.0458 31.7922 25.1694 31.925 25.3422C32.069 25.4054 32.206 25.3211 32.3324 25.2719C32.4238 24.6081 33.2527 24.7064 33.4986 24.0812L33.3475 24.1409C33.2843 24.0496 33.1262 24.0882 33.1333 23.9478C33.2671 23.7889 33.4305 23.6577 33.6145 23.5614C32.9144 23.093 32.1452 22.7374 31.3349 22.5076C31.0118 22.4619 30.6916 22.3974 30.376 22.3145C30.527 22.7711 30.376 23.4384 30.4884 23.9688L31.0609 24.1585C31.233 23.881 31.5983 23.8073 31.7634 23.5614C31.8688 23.4736 31.9882 23.5614 32.069 23.6562C32.0831 23.8826 32.0471 24.1092 31.9636 24.3201C31.7494 24.7521 31.2365 24.8048 30.952 25.1174Z" fill="white"/>
<path d="M39.4667 30.4878C39.1659 31.5743 38.6915 32.605 38.0617 33.5401C37.7983 33.8914 37.5384 34.341 37.2012 34.5166L37.9353 35.1559C37.9739 35.1172 37.9353 35.0505 37.9634 34.9978C37.9915 34.9451 38.009 34.7871 38.1285 34.8046C38.4797 34.8046 38.4797 35.1559 38.6869 35.3631C38.6448 35.6687 38.9117 35.9075 38.8204 36.1885C40.7688 34.1157 41.908 31.4121 42.0308 28.57L42.1362 28.4435C41.4337 28.5138 40.661 28.4646 39.9198 28.4751L39.7407 28.4189C39.7466 28.9012 39.7102 29.3831 39.6318 29.8591L39.8917 30.1436C39.9235 30.1996 39.9355 30.2646 39.926 30.3283C39.9164 30.3919 39.8858 30.4506 39.839 30.4948C39.7851 30.5354 39.7191 30.5568 39.6517 30.5555C39.5842 30.5542 39.5191 30.5304 39.4667 30.4878Z" fill="white"/>
<path d="M37.4746 28.3662L37.7205 28.6086C37.9664 28.7807 37.8013 29.1354 38.0717 29.283C38.3422 29.4305 38.4932 29.8028 38.6337 30.0733C38.6672 29.9994 38.6908 29.9215 38.704 29.8415C38.8129 29.4024 38.7953 28.9071 38.9323 28.4751C38.4443 28.5456 37.9467 28.5084 37.4746 28.3662Z" fill="white"/>
<path d="M32.9262 19.729C32.0876 19.4648 31.2253 19.2825 30.3516 19.1846L30.4323 19.3602V21.5239L30.6431 21.4852C31.9446 21.6268 33.1806 22.1293 34.2118 22.9359L34.268 23.1045C34.6192 22.6022 35.1707 22.1702 35.5922 21.6995L35.9926 21.4642L35.7994 21.3869C34.9494 20.6657 33.976 20.104 32.9262 19.729Z" fill="white"/>
<path d="M37.5419 23.4177C37.2372 22.9162 36.8843 22.4456 36.4882 22.0127L36.4495 22.111C35.7119 22.8733 34.9041 23.6671 34.2051 24.4504C34.2501 24.5484 34.3252 24.6295 34.4193 24.6822C34.451 24.489 34.5563 24.3309 34.5739 24.1237C34.76 23.8603 35.0516 24.0253 35.2975 24.0815C35.6803 23.9937 36.0421 24.1694 36.432 24.1623C36.7235 24.3063 36.7481 24.6751 37.008 24.8192C37.0818 24.921 37.0256 25.0404 36.9272 25.1212C37.008 25.7219 37.2785 24.9632 37.6016 25.1212C37.7281 25.1704 37.8861 25.1528 37.981 25.2898C38.0302 25.5392 38.3322 25.4936 38.3322 25.7289C38.3076 25.8483 38.1812 25.8799 38.0969 25.9467C38.1742 26.1855 37.8545 26.3365 37.9634 26.593C38.4271 26.6808 38.4446 26.1434 38.6659 25.8905C38.5774 25.4691 38.4271 25.0631 38.2198 24.6857C37.9599 24.6295 37.7983 24.3344 37.5173 24.2607C37.0186 24.0394 37.6087 23.7198 37.5419 23.4177Z" fill="white"/>
<path d="M32.3918 32.3739C32.5814 32.1772 32.9854 32.1843 33.0029 31.8997C32.7219 31.8541 32.5814 32.0086 32.3918 32.1597C32.3637 32.2194 32.2794 32.3318 32.3918 32.3739Z" fill="white"/>
<path d="M29.5045 40.9661L29.5853 40.8467L29.3394 40.9099C26.2858 40.7669 23.3884 39.5185 21.187 37.3975L21.1624 37.4923L19.5186 39.1467C21.8993 41.292 24.8642 42.6809 28.0363 43.1368C28.5689 43.1676 29.0991 43.2309 29.6239 43.3265L29.5045 43.1368V40.9661Z" fill="white"/>
<path d="M30.927 33.8705C31.1377 33.9091 30.9902 34.1339 31.1412 34.2217C31.4679 34.1163 31.7208 34.4992 31.9807 34.2604C31.9807 33.8845 32.3917 33.9091 32.62 33.8213C32.9712 33.6035 33.3892 33.319 33.3506 32.8378L33.2909 32.7676C33.0415 32.7676 32.915 32.9572 32.7359 33.1188C32.5568 33.2804 32.3846 32.88 32.2125 32.9678C32.2125 33.0064 32.2617 33.024 32.2933 33.0415C32.3208 33.0739 32.3359 33.115 32.3359 33.1575C32.3359 33.1999 32.3208 33.241 32.2933 33.2734C32.0229 33.5192 31.8964 33.1504 31.6365 33.175V33.2734C31.6365 33.3296 31.6365 33.4139 31.5452 33.3823C31.3801 33.1188 31.0534 33.2172 30.8918 32.9853C30.7935 32.9291 30.6952 32.9853 30.6249 33.0661C30.5652 33.1856 30.3123 33.0661 30.3755 33.2593C30.1753 33.3296 30.1542 33.5403 30.0243 33.6738C29.7749 33.6281 29.673 33.9091 29.4307 33.9056C29.4553 33.9513 29.4307 34.032 29.5009 34.0391C29.6472 34.1007 29.8078 34.1202 29.9646 34.0953C30.2069 33.6949 30.5898 34.0145 30.927 33.8705Z" fill="white"/>
<path d="M20.6668 36.8179C20.3893 36.5916 20.1393 36.3334 19.9221 36.0487C19.7819 36.012 19.6503 35.9477 19.5351 35.8597C19.42 35.7716 19.3234 35.6616 19.2512 35.5358C19.1705 35.4445 19.2512 35.2865 19.1564 35.2232L19.0581 35.3426C18.7771 35.4761 18.6787 35.1881 18.4855 35.0722C18.2361 34.9352 18.3591 34.4645 18.0184 34.5488C17.8954 34.5488 17.8533 34.3978 17.7725 34.3205C17.4634 34.3486 17.3826 34.0079 17.214 33.8393C17.1824 33.9131 17.214 34.0079 17.1192 34.0536C16.7995 34.1273 16.6871 33.7375 16.4694 33.5724C16.4132 33.597 16.3745 33.6672 16.2938 33.6496C16.1965 33.565 16.1172 33.4617 16.0605 33.3458C16.0037 33.23 15.9708 33.104 15.9636 32.9752C15.7001 32.6767 15.8231 32.2095 15.8687 31.8477C15.9179 31.7529 16.0584 31.7002 16.0303 31.5773C16.1041 31.4087 16.2797 31.3946 16.4483 31.3876C16.5137 31.4228 16.5683 31.475 16.6064 31.5386C16.7117 31.4719 16.9576 31.5386 16.8557 31.3139C17.0087 31.2042 17.1882 31.1375 17.3756 31.1207C17.4753 31.2974 17.593 31.4634 17.7268 31.6159L17.618 31.4438C17.4112 30.6479 17.2818 29.8339 17.2316 29.0132C17.2316 28.964 17.1297 28.9394 17.1894 28.8938V28.9183C17.1854 28.7681 17.1936 28.6177 17.214 28.4688L16.9998 28.5495H14.7764C14.8912 31.0086 15.56 33.41 16.7328 35.5745C17.3018 36.6282 18.1378 37.5766 18.8403 38.5601L20.4314 36.9127L20.6668 36.8179Z" fill="white"/>
<path d="M27.9207 34.868C28.0873 34.6933 28.2932 34.5608 28.5213 34.4817C27.8188 34.6257 27.1866 34.1304 26.5789 33.8319C26.2277 33.579 25.7886 33.3682 25.5814 32.9854C25.1036 33.5776 24.5709 34.1233 23.9902 34.6151C24.2361 34.6151 24.3731 34.9032 24.5838 35.0261C25.7816 36.0236 27.2744 36.5048 28.6618 36.8491L28.2825 36.6699C27.9944 36.3433 27.58 35.9674 27.58 35.5038C27.8575 35.4019 27.8258 35.0858 27.9207 34.868Z" fill="white"/>
<path d="M30.4147 40.1016C31.0048 39.9014 31.6933 39.933 32.3325 39.8276C32.1966 39.7971 32.0737 39.7246 31.9813 39.6204C31.6055 39.5958 31.4298 39.2059 31.3104 38.9179C31.2542 38.7071 31.4017 38.528 31.4896 38.3454C31.328 38.0152 30.8327 38.254 30.5447 38.1381C30.4639 38.0714 30.4077 37.9765 30.2988 37.959L30.4147 38.1381C30.4547 38.792 30.4547 39.4477 30.4147 40.1016Z" fill="white"/>
<path d="M38.8721 37.2285C38.6438 37.6641 38.1696 37.931 37.7762 38.2823C37.2564 38.8021 36.4098 38.911 36.1429 39.6662C35.8654 39.9191 35.7706 40.3195 35.3807 40.4635C35.2332 40.8463 34.8257 40.8147 34.5939 41.0992C33.923 41.6999 33.491 40.7199 32.8833 40.6005L31.661 40.8147C31.236 40.8147 30.8145 40.9658 30.4141 40.8147C30.4738 41.6508 30.4738 42.4901 30.4141 43.3261L30.5651 43.2278C34.3065 43.0769 37.8675 41.5801 40.5932 39.0128L38.9107 37.4077L38.8721 37.2285Z" fill="white"/>
<path d="M42.9363 28.4753L42.8028 28.377L42.8801 28.5947C42.7661 31.1618 41.8824 33.6352 40.3441 35.6934C40.0794 36.0772 39.7639 36.4234 39.4062 36.7226C40.0452 37.2602 40.6406 37.8474 41.1871 38.4788L41.2503 38.3594C43.6859 35.6759 45.0975 32.2196 45.2369 28.5982L45.3353 28.4086L45.2159 28.4648L42.9363 28.4753Z" fill="white"/>
<path d="M17.2529 27.6785L17.2107 27.3659C17.3438 24.9013 18.1759 22.5256 19.6097 20.5166C19.961 20.1092 20.2314 19.5999 20.681 19.2943C20.1612 18.806 19.6273 18.2405 19.0723 17.7031L19.0161 17.4854C16.7688 19.8942 15.3329 22.9467 14.91 26.2138C14.8222 26.695 14.8819 27.1903 14.7871 27.6785C15.6077 27.6118 16.4323 27.6118 17.2529 27.6785Z" fill="white"/>
<path d="M23.4707 22.0723C22.3757 23.333 21.634 24.8612 21.3211 26.5015C21.2333 26.8843 21.2825 27.3304 21.1279 27.6922C21.4527 27.5937 21.7971 27.5792 22.129 27.6501C21.9498 27.5552 22.0974 27.3234 21.992 27.197C21.9674 27.0003 21.9358 26.7509 22.129 26.6209C22.1079 26.2943 22.4556 26.1257 22.4802 25.8306C22.568 25.4794 22.9509 25.7182 23.1335 25.5426C23.253 25.4794 23.1335 25.367 23.1335 25.2792C23.2916 25.0614 23.541 25.0719 23.7307 24.9525C23.8635 24.7267 24.0476 24.5354 24.2681 24.394C24.7458 24.394 24.7563 23.7372 25.2094 23.7196C24.5952 23.2083 24.0144 22.6581 23.4707 22.0723Z" fill="white"/>
<path d="M26.2666 32.3499C27.094 33.0411 28.0906 33.4994 29.1538 33.6777C29.2065 33.4634 29.1222 33.1929 29.2346 33.0068C29.347 32.8206 29.5262 32.8382 29.6877 32.8698C29.7105 32.8665 29.7321 32.8575 29.7505 32.8436C29.7689 32.8297 29.7835 32.8114 29.793 32.7904C29.8024 32.7694 29.8064 32.7464 29.8046 32.7234C29.8028 32.7004 29.7952 32.6783 29.7826 32.659C29.5543 32.6169 29.6561 32.3605 29.5753 32.2165C29.5753 32.1357 29.7194 32.1532 29.6877 32.0479C29.5262 31.9179 29.765 31.7774 29.6315 31.6404C29.6702 31.6158 29.7018 31.5667 29.7404 31.5386C29.2557 31.7423 28.7429 31.4472 28.3144 31.2576C28.1036 31.1346 27.8015 31.0187 27.7559 30.7588C27.3976 31.3208 26.7443 31.8301 26.2666 32.3499Z" fill="white"/>
<path d="M22.4549 28.5109L22.3917 28.9359C22.2969 29.1853 21.9843 28.9991 21.8403 29.1677C21.6962 29.3363 21.8403 29.4944 21.9351 29.6208C21.7138 30.1337 22.4409 30.2952 22.4304 30.7554C22.6551 31.0469 22.3987 31.4579 22.7219 31.7178C22.7921 32.2376 22.6481 32.9401 23.1047 33.3476L23.182 33.8463C23.2733 34.1976 22.7711 34.0992 22.8308 34.4048C22.9291 34.3592 22.9502 34.4856 22.9572 34.5172C23.5916 33.7683 24.277 33.0642 25.0085 32.4097L24.7064 32.1042C24.1272 31.2755 23.71 30.3447 23.4771 29.3609L23.2452 29.245C23.1958 29.4771 23.1583 29.7116 23.1328 29.9475L23.0521 30.0423C22.887 30.0423 22.7816 29.8983 22.6376 29.8105C22.6025 29.7227 22.5146 29.5787 22.6376 29.5084C22.7061 29.5035 22.7742 29.5221 22.8308 29.5611C22.901 29.4768 22.8694 29.3504 22.9116 29.238C22.9326 29.0448 22.764 28.8867 22.8835 28.7006C23.0345 28.7006 23.1469 28.8692 23.2101 28.971C23.3647 29.0202 23.4841 28.8938 23.6105 28.8376C23.6105 28.7006 23.8002 28.5179 23.6105 28.4371C23.6931 28.1288 23.6931 27.8042 23.6105 27.4958C23.5262 27.2324 23.2312 27.278 23.0134 27.3026C22.3671 27.5099 23.1188 28.0051 22.9607 28.395C22.8624 28.6374 22.6235 28.4196 22.4549 28.5109Z" fill="white"/>
<path d="M26.9786 30.0908C26.9193 30.2935 26.805 30.4759 26.6484 30.6177H26.6941C26.8838 30.4807 27.0243 30.2348 27.2666 30.2208L26.9786 30.0908Z" fill="white"/>
<path d="M29.5044 22.4023C28.2128 22.5148 27.0036 23.0839 26.0938 24.0075H26.2659C26.4626 24.2007 26.7717 24.1586 26.9157 24.4185C26.9894 24.559 26.7787 24.545 26.7892 24.6644C26.8314 24.696 26.8841 24.703 26.9157 24.7592C27.0667 24.8119 27.0351 24.6714 27.0948 24.6082C27.2915 24.4115 27.3266 24.8014 27.5163 24.8014C27.5471 24.7765 27.5827 24.758 27.6208 24.7472C27.659 24.7363 27.6989 24.7332 27.7382 24.7382C27.7776 24.7431 27.8155 24.7559 27.8498 24.7758C27.8841 24.7957 27.914 24.8223 27.9378 24.854C28.0678 24.7416 28.3417 24.854 28.3804 24.6398C28.6298 24.3764 28.4928 23.9689 28.8581 23.8003C28.988 23.8741 28.8581 23.9935 28.9002 24.1059C29.1461 24.2078 29.4271 23.8951 29.6238 24.148C29.4845 23.5772 29.4441 22.9868 29.5044 22.4023Z" fill="white"/>
<path d="M21.2825 18.6934L21.3212 18.581C23.549 16.494 26.4548 15.2806 29.5052 15.1633L29.435 14.9737L29.4069 13.0523L29.4736 12.8311C26.3636 12.9572 23.3632 14.0145 20.861 15.8658C20.3728 16.2171 19.9408 16.7123 19.4561 17.0039H19.5263C20.1624 17.5118 20.7503 18.0774 21.2825 18.6934Z" fill="white"/>
<path d="M29.4696 16.0732C27.2369 16.1879 25.0778 16.9093 23.2245 18.1596C22.7257 18.5109 22.2726 18.95 21.7598 19.2555C22.3534 19.6279 22.8416 20.2531 23.3755 20.7483L23.4317 20.8994C24.7669 19.6513 26.43 18.8095 28.2262 18.4723C28.6448 18.3737 29.0761 18.3405 29.5048 18.3739C29.4387 17.6088 29.4269 16.84 29.4696 16.0732Z" fill="white"/>
<path d="M29.3788 19.2374C27.408 19.4022 25.5407 20.1895 24.0469 21.4854C24.6545 21.9069 25.1955 22.5848 25.7504 23.073C25.7935 23.0168 25.8333 22.9581 25.8698 22.8974C26.5967 22.3288 27.4235 21.9012 28.3075 21.6364C28.7044 21.5978 29.0978 21.4081 29.5123 21.4994C29.428 20.7161 29.428 19.9259 29.5123 19.1426L29.3788 19.2374Z" fill="white"/>
<path d="M23.8285 35.5142L23.7969 35.458L23.8285 35.5564V35.5142Z" fill="white"/>
<path d="M31.9076 12.9221C31.3855 12.8913 30.8658 12.828 30.3516 12.7324C30.4322 13.4639 30.4405 14.2016 30.3761 14.9347C30.3789 14.8661 30.4049 14.8004 30.4499 14.7486C30.5623 14.6818 30.6536 14.7802 30.6993 14.8575C30.745 14.9347 30.759 15.1631 30.6642 15.2087C30.759 15.2087 30.8082 15.1525 30.8925 15.1525C32.6683 15.2815 34.3929 15.8059 35.9399 16.6875V16.6488C36.249 16.4943 36.6424 16.2976 36.9691 16.568C37.3519 16.424 37.4257 16.8947 37.7348 16.9509C37.9453 17.0595 38.13 17.2119 38.2767 17.3979C38.4233 17.5839 38.5284 17.7992 38.5848 18.0292C38.6515 18.1732 38.8798 18.2751 38.9115 18.4296C39.1679 17.8852 39.6772 17.4988 40.1198 17.0247L40.3902 16.9123C38.0649 14.7053 35.0904 13.3061 31.9076 12.9221ZM33.4461 14.5554C33.3139 14.6955 33.1448 14.7952 32.9583 14.8431C32.7718 14.8909 32.5756 14.885 32.3923 14.8259C31.8654 14.9312 31.1278 15.2333 30.7063 14.6924C30.6852 14.6502 30.6396 14.594 30.6852 14.5554C30.7555 14.4289 30.9381 14.4746 31.0365 14.5132L32.1886 14.0215C32.6487 14.0601 33.1615 14.1163 33.4355 14.4992L33.4461 14.5554ZM37.9666 16.7753C37.5346 16.8877 37.4959 16.403 37.1622 16.28C37.115 16.2126 37.0949 16.1298 37.106 16.0482C37.2571 15.8655 37.4011 16.1711 37.5662 16.0096C37.644 16.0246 37.7169 16.0589 37.7782 16.1091C37.8396 16.1594 37.8874 16.2242 37.9174 16.2976C37.8858 16.4767 38.0966 16.6313 37.9666 16.7753Z" fill="white"/>
<path d="M77.9531 49.3408C77.9531 51.4404 78.5269 53.1006 79.6865 54.3091C80.8462 55.5176 82.5308 56.1157 84.7524 56.1157C86.9741 56.1157 88.6587 55.5176 89.8184 54.3091C90.9658 53.1128 91.5518 51.4404 91.5518 49.3164V39.1357H89.4766V49.2798C89.4766 50.8301 89.0615 52.0508 88.2437 52.9297C87.4258 53.8208 86.2661 54.2603 84.7524 54.2603C83.2388 54.2603 82.0669 53.8208 81.249 52.9297C80.4312 52.0508 80.0283 50.8301 80.0283 49.2798V39.1357H77.9531V49.3408ZM95.3848 55.8105H97.2524V46.9849C97.6187 46.4722 98.1313 46.0205 98.7905 45.6543C99.4497 45.2881 100.121 45.105 100.829 45.105C101.696 45.105 102.367 45.3247 102.831 45.752C103.295 46.1914 103.527 46.9116 103.527 47.9126V55.8105H105.407V47.3389C105.407 44.7388 104.113 43.4326 101.549 43.4326C100.707 43.4326 99.9014 43.6401 99.1201 44.043C98.3389 44.4458 97.7163 44.9219 97.2524 45.4834V43.7378H95.3848V55.8105ZM108.825 40.4297C108.825 40.7837 108.947 41.0889 109.191 41.333C109.435 41.5894 109.728 41.7114 110.07 41.7114C110.412 41.7114 110.717 41.5894 110.973 41.333C111.217 41.0889 111.352 40.7837 111.352 40.4297C111.352 40.0879 111.217 39.7949 110.973 39.5508C110.717 39.3066 110.412 39.1846 110.07 39.1846C109.728 39.1846 109.435 39.3066 109.191 39.5508C108.947 39.7949 108.825 40.0879 108.825 40.4297ZM109.154 55.8105H111.022V43.7378H109.154V55.8105ZM113.134 45.3857H115.136V53.2837C115.136 54.187 115.355 54.895 115.807 55.3833C116.259 55.8716 116.93 56.1157 117.809 56.1157C118.761 56.1157 119.518 55.8594 120.067 55.3345L119.518 53.9307C119.225 54.2725 118.798 54.4312 118.236 54.4312C117.833 54.4312 117.528 54.2969 117.321 54.0161C117.113 53.7354 117.016 53.3569 117.016 52.8809V45.3857H119.469V43.7378H117.016V40.4297H115.136V43.7378H113.134V45.3857ZM121.41 49.7559C121.41 51.6357 121.984 53.1738 123.131 54.3457C124.279 55.5298 125.756 56.1157 127.562 56.1157C129.516 56.1157 131.115 55.5054 132.36 54.2603L131.469 53.0396C130.993 53.5278 130.431 53.894 129.772 54.1626C129.113 54.4312 128.429 54.5654 127.733 54.5654C126.476 54.5654 125.451 54.1748 124.669 53.3691C123.888 52.5635 123.461 51.5747 123.388 50.3906H133.166V49.9146C133.166 48.6938 132.934 47.6074 132.482 46.6309C132.03 45.6543 131.359 44.8853 130.48 44.2993C129.589 43.7256 128.551 43.4326 127.367 43.4326C126.232 43.4326 125.207 43.7256 124.303 44.2871C123.388 44.8486 122.68 45.6177 122.167 46.582C121.654 47.5464 121.41 48.6084 121.41 49.7559ZM123.388 49.0112C123.412 48.5352 123.51 48.0591 123.693 47.5952C123.864 47.1313 124.108 46.7041 124.425 46.3135C124.743 45.9229 125.146 45.5933 125.658 45.3491C126.159 45.105 126.72 44.9829 127.343 44.9829C128.002 44.9829 128.588 45.1172 129.113 45.3613C129.625 45.6055 130.041 45.9351 130.358 46.3379C130.663 46.7407 130.895 47.168 131.054 47.6196C131.212 48.0835 131.298 48.5474 131.31 49.0112H123.388ZM135.497 49.7803C135.497 51.7212 135.985 53.2593 136.986 54.4067C137.987 55.5542 139.281 56.1157 140.88 56.1157C141.698 56.1157 142.467 55.9326 143.175 55.542C143.883 55.1636 144.469 54.6509 144.945 54.0161V55.8105H146.825V39.1357H144.945V45.5566C144.445 44.8975 143.847 44.3726 143.139 43.9941C142.431 43.6279 141.686 43.4326 140.88 43.4326C139.281 43.4326 137.987 44.0186 136.986 45.1782C135.985 46.3379 135.497 47.876 135.497 49.7803ZM137.45 49.7803C137.45 48.4131 137.792 47.3022 138.488 46.4233C139.184 45.5444 140.124 45.105 141.32 45.105C142.04 45.105 142.736 45.3003 143.407 45.6787C144.079 46.0571 144.591 46.521 144.945 47.0581V52.5391C144.604 53.0762 144.091 53.5278 143.419 53.894C142.748 54.2603 142.052 54.4312 141.32 54.4312C140.124 54.4312 139.184 54.0039 138.488 53.1372C137.792 52.2705 137.45 51.1475 137.45 49.7803ZM157.104 55.8105H159.179V42.3584L168.896 55.8105H170.897V39.1357H168.822V52.3071L159.228 39.1357H157.104V55.8105ZM174.047 52.1118C174.047 52.9541 174.254 53.6865 174.682 54.3091C175.109 54.9316 175.634 55.3833 176.269 55.6763C176.891 55.9692 177.562 56.1157 178.271 56.1157C179.906 56.1157 181.249 55.5542 182.274 54.4312V55.8105H184.154V47.5098C184.154 46.8018 184.032 46.1792 183.788 45.6421C183.544 45.105 183.202 44.6899 182.763 44.3726C182.323 44.0552 181.835 43.8232 181.286 43.6646C180.736 43.5181 180.138 43.4326 179.479 43.4326C177.526 43.4326 175.915 44.104 174.645 45.4346L175.524 46.7407C176.574 45.6177 177.807 45.0562 179.223 45.0562C180.114 45.0562 180.846 45.2881 181.42 45.7397C181.981 46.2036 182.274 46.8262 182.274 47.6074V49.7803C181.322 48.6816 179.979 48.1323 178.271 48.1323C177.733 48.1323 177.221 48.2178 176.732 48.3887C176.244 48.5596 175.792 48.7915 175.39 49.1089C174.975 49.4263 174.657 49.8413 174.413 50.354C174.169 50.8789 174.047 51.4648 174.047 52.1118ZM175.976 52.1362C175.976 51.3672 176.244 50.7324 176.806 50.2319C177.367 49.7437 178.075 49.4873 178.954 49.4873C179.638 49.4873 180.272 49.6216 180.858 49.8779C181.444 50.1343 181.92 50.5005 182.274 50.9888V53.2593C181.92 53.7476 181.444 54.126 180.858 54.3823C180.272 54.6387 179.638 54.7607 178.954 54.7607C178.075 54.7607 177.367 54.5166 176.806 54.0283C176.244 53.54 175.976 52.9053 175.976 52.1362ZM186.278 45.3857H188.28V53.2837C188.28 54.187 188.5 54.895 188.952 55.3833C189.403 55.8716 190.075 56.1157 190.954 56.1157C191.906 56.1157 192.663 55.8594 193.212 55.3345L192.663 53.9307C192.37 54.2725 191.942 54.4312 191.381 54.4312C190.978 54.4312 190.673 54.2969 190.465 54.0161C190.258 53.7354 190.16 53.3569 190.16 52.8809V45.3857H192.614V43.7378H190.16V40.4297H188.28V43.7378H186.278V45.3857ZM194.933 40.4297C194.933 40.7837 195.055 41.0889 195.299 41.333C195.543 41.5894 195.836 41.7114 196.178 41.7114C196.52 41.7114 196.825 41.5894 197.082 41.333C197.326 41.0889 197.46 40.7837 197.46 40.4297C197.46 40.0879 197.326 39.7949 197.082 39.5508C196.825 39.3066 196.52 39.1846 196.178 39.1846C195.836 39.1846 195.543 39.3066 195.299 39.5508C195.055 39.7949 194.933 40.0879 194.933 40.4297ZM195.263 55.8105H197.13V43.7378H195.263V55.8105ZM200.17 49.7559C200.17 50.9277 200.402 52.002 200.89 52.9541C201.366 53.9185 202.062 54.6875 202.978 55.2612C203.893 55.835 204.955 56.1157 206.151 56.1157C207.348 56.1157 208.397 55.835 209.313 55.2612C210.229 54.6875 210.924 53.9185 211.4 52.9541C211.876 52.002 212.121 50.9277 212.121 49.7559C212.121 48.584 211.876 47.522 211.4 46.5698C210.924 45.6177 210.229 44.8608 209.313 44.2871C208.397 43.7256 207.348 43.4326 206.151 43.4326C204.955 43.4326 203.893 43.7256 202.978 44.2871C202.062 44.8608 201.366 45.6177 200.89 46.5698C200.402 47.522 200.17 48.584 200.17 49.7559ZM202.123 49.7559C202.123 48.9258 202.27 48.1689 202.575 47.4731C202.88 46.7773 203.344 46.2036 203.966 45.7642C204.589 45.3247 205.321 45.105 206.151 45.105C206.981 45.105 207.702 45.3247 208.312 45.7642C208.922 46.2036 209.386 46.7773 209.691 47.4609C209.984 48.1567 210.143 48.9258 210.143 49.7559C210.143 50.6104 209.984 51.3794 209.691 52.0752C209.386 52.771 208.922 53.3325 208.312 53.772C207.702 54.2114 206.981 54.4312 206.151 54.4312C204.906 54.4312 203.93 53.9795 203.209 53.0762C202.477 52.1729 202.123 51.062 202.123 49.7559ZM215.185 55.8105H217.052V46.9849C217.418 46.4722 217.931 46.0205 218.59 45.6543C219.25 45.2881 219.921 45.105 220.629 45.105C221.496 45.105 222.167 45.3247 222.631 45.752C223.095 46.1914 223.327 46.9116 223.327 47.9126V55.8105H225.207V47.3389C225.207 44.7388 223.913 43.4326 221.349 43.4326C220.507 43.4326 219.701 43.6401 218.92 44.043C218.139 44.4458 217.516 44.9219 217.052 45.4834V43.7378H215.185V55.8105ZM227.904 54.2114C229.101 55.481 230.724 56.1157 232.775 56.1157C234.276 56.1157 235.448 55.7739 236.278 55.0903C237.108 54.4067 237.523 53.5278 237.523 52.4658C237.523 52.0996 237.462 51.7578 237.365 51.4404C237.267 51.123 237.145 50.8545 236.999 50.6348C236.852 50.415 236.645 50.2075 236.388 50.0122C236.12 49.8169 235.888 49.6704 235.668 49.5483C235.448 49.4263 235.155 49.3164 234.801 49.1943C234.435 49.0723 234.142 48.9868 233.91 48.9258C233.678 48.877 233.373 48.8037 232.995 48.7061C232.604 48.6084 232.287 48.5352 232.067 48.4741C231.835 48.4131 231.579 48.3276 231.286 48.2056C230.993 48.0957 230.773 47.9858 230.626 47.8638C230.468 47.7417 230.333 47.5952 230.224 47.4121C230.102 47.229 230.053 47.0215 230.053 46.7896C230.053 46.2524 230.285 45.813 230.773 45.4712C231.261 45.1294 231.908 44.9585 232.726 44.9585C233.471 44.9585 234.167 45.105 234.801 45.3857C235.436 45.6665 235.949 46.0327 236.327 46.4844L237.194 45.1904C236.022 44.0186 234.533 43.4326 232.726 43.4326C231.334 43.4326 230.236 43.7744 229.43 44.4336C228.625 45.105 228.222 45.9351 228.222 46.9116C228.222 47.2656 228.271 47.583 228.368 47.876C228.466 48.1689 228.576 48.4253 228.722 48.6206C228.856 48.8281 229.052 49.0234 229.308 49.2065C229.564 49.3896 229.796 49.5361 230.004 49.646C230.199 49.7559 230.48 49.8657 230.846 49.9756C231.2 50.0977 231.481 50.1831 231.701 50.2319C231.908 50.2808 232.213 50.354 232.604 50.4395C232.995 50.5371 233.312 50.6226 233.556 50.6958C233.8 50.769 234.069 50.8667 234.386 50.9888C234.691 51.1108 234.923 51.2451 235.094 51.3794C235.253 51.5137 235.399 51.6846 235.521 51.8921C235.644 52.0996 235.705 52.3315 235.705 52.5879C235.705 53.1982 235.448 53.6743 234.948 54.0405C234.447 54.4067 233.751 54.5898 232.848 54.5898C232.055 54.5898 231.298 54.4312 230.59 54.0894C229.87 53.7598 229.296 53.3447 228.869 52.8564L227.904 54.2114ZM77.9531 84.8105H83.6538C84.9233 84.8105 86.083 84.603 87.1572 84.1758C88.2314 83.7607 89.1348 83.1748 89.8672 82.4302C90.5996 81.6978 91.1733 80.8188 91.5884 79.7935C91.9912 78.7681 92.1987 77.6694 92.1987 76.4854C92.1987 74.9229 91.8447 73.5068 91.1489 72.2373C90.4531 70.98 89.4521 69.979 88.146 69.2466C86.8398 68.5142 85.3384 68.1357 83.6538 68.1357H77.9531V84.8105ZM80.0283 82.9551V69.9912H83.6538C84.9844 69.9912 86.144 70.2842 87.1206 70.8701C88.0972 71.4561 88.8296 72.2373 89.3179 73.2017C89.8062 74.1782 90.0503 75.2646 90.0503 76.4854C90.0503 77.6938 89.7939 78.7803 89.3057 79.7446C88.8174 80.7212 88.0728 81.4902 87.0962 82.0762C86.1074 82.6621 84.96 82.9551 83.6538 82.9551H80.0283ZM94.6768 78.7559C94.6768 80.6357 95.2505 82.1738 96.3979 83.3457C97.5454 84.5298 99.0225 85.1157 100.829 85.1157C102.782 85.1157 104.381 84.5054 105.626 83.2603L104.735 82.0396C104.259 82.5278 103.698 82.894 103.039 83.1626C102.379 83.4312 101.696 83.5654 101 83.5654C99.7427 83.5654 98.7173 83.1748 97.936 82.3691C97.1548 81.5635 96.7275 80.5747 96.6543 79.3906H106.432V78.9146C106.432 77.6938 106.2 76.6074 105.749 75.6309C105.297 74.6543 104.625 73.8853 103.747 73.2993C102.855 72.7256 101.818 72.4326 100.634 72.4326C99.4985 72.4326 98.4731 72.7256 97.5698 73.2871C96.6543 73.8486 95.9463 74.6177 95.4336 75.582C94.9209 76.5464 94.6768 77.6084 94.6768 78.7559ZM96.6543 78.0112C96.6787 77.5352 96.7764 77.0591 96.9595 76.5952C97.1304 76.1313 97.3745 75.7041 97.6919 75.3135C98.0093 74.9229 98.4121 74.5933 98.9248 74.3491C99.4253 74.105 99.9868 73.9829 100.609 73.9829C101.269 73.9829 101.854 74.1172 102.379 74.3613C102.892 74.6055 103.307 74.9351 103.625 75.3379C103.93 75.7407 104.162 76.168 104.32 76.6196C104.479 77.0835 104.564 77.5474 104.577 78.0112H96.6543ZM107.665 72.7378L112.694 84.8105H114.745L119.762 72.7378H117.711L113.72 82.6377L109.691 72.7378H107.665ZM121.02 78.7559C121.02 80.6357 121.593 82.1738 122.741 83.3457C123.888 84.5298 125.365 85.1157 127.172 85.1157C129.125 85.1157 130.724 84.5054 131.969 83.2603L131.078 82.0396C130.602 82.5278 130.041 82.894 129.381 83.1626C128.722 83.4312 128.039 83.5654 127.343 83.5654C126.085 83.5654 125.06 83.1748 124.279 82.3691C123.498 81.5635 123.07 80.5747 122.997 79.3906H132.775V78.9146C132.775 77.6938 132.543 76.6074 132.091 75.6309C131.64 74.6543 130.968 73.8853 130.089 73.2993C129.198 72.7256 128.161 72.4326 126.977 72.4326C125.841 72.4326 124.816 72.7256 123.913 73.2871C122.997 73.8486 122.289 74.6177 121.776 75.582C121.264 76.5464 121.02 77.6084 121.02 78.7559ZM122.997 78.0112C123.021 77.5352 123.119 77.0591 123.302 76.5952C123.473 76.1313 123.717 75.7041 124.035 75.3135C124.352 74.9229 124.755 74.5933 125.268 74.3491C125.768 74.105 126.33 73.9829 126.952 73.9829C127.611 73.9829 128.197 74.1172 128.722 74.3613C129.235 74.6055 129.65 74.9351 129.967 75.3379C130.272 75.7407 130.504 76.168 130.663 76.6196C130.822 77.0835 130.907 77.5474 130.919 78.0112H122.997ZM135.814 84.8105H137.682V68.1357H135.814V84.8105ZM140.722 78.7559C140.722 79.9277 140.954 81.002 141.442 81.9541C141.918 82.9185 142.614 83.6875 143.529 84.2612C144.445 84.835 145.507 85.1157 146.703 85.1157C147.899 85.1157 148.949 84.835 149.865 84.2612C150.78 83.6875 151.476 82.9185 151.952 81.9541C152.428 81.002 152.672 79.9277 152.672 78.7559C152.672 77.584 152.428 76.522 151.952 75.5698C151.476 74.6177 150.78 73.8608 149.865 73.2871C148.949 72.7256 147.899 72.4326 146.703 72.4326C145.507 72.4326 144.445 72.7256 143.529 73.2871C142.614 73.8608 141.918 74.6177 141.442 75.5698C140.954 76.522 140.722 77.584 140.722 78.7559ZM142.675 78.7559C142.675 77.9258 142.821 77.1689 143.126 76.4731C143.432 75.7773 143.896 75.2036 144.518 74.7642C145.141 74.3247 145.873 74.105 146.703 74.105C147.533 74.105 148.253 74.3247 148.864 74.7642C149.474 75.2036 149.938 75.7773 150.243 76.4609C150.536 77.1567 150.695 77.9258 150.695 78.7559C150.695 79.6104 150.536 80.3794 150.243 81.0752C149.938 81.771 149.474 82.3325 148.864 82.772C148.253 83.2114 147.533 83.4312 146.703 83.4312C145.458 83.4312 144.481 82.9795 143.761 82.0762C143.029 81.1729 142.675 80.062 142.675 78.7559ZM155.736 89.4126H157.604V82.9795C158.092 83.6631 158.678 84.2002 159.386 84.5664C160.094 84.9326 160.851 85.1157 161.681 85.1157C163.28 85.1157 164.574 84.542 165.563 83.3823C166.552 82.2349 167.052 80.6846 167.052 78.7559C167.052 76.8149 166.552 75.2769 165.563 74.1416C164.574 73.0063 163.28 72.4326 161.681 72.4326C160.851 72.4326 160.082 72.6279 159.362 73.0063C158.642 73.397 158.056 73.8975 157.604 74.5322V72.7378H155.736V89.4126ZM157.604 81.4902V76.0337C157.934 75.4966 158.434 75.0449 159.118 74.6665C159.789 74.3003 160.485 74.105 161.205 74.105C162.389 74.105 163.329 74.5444 164.037 75.4111C164.733 76.2778 165.087 77.3887 165.087 78.7559C165.087 80.123 164.733 81.2461 164.037 82.125C163.329 83.0039 162.389 83.4312 161.205 83.4312C160.485 83.4312 159.789 83.248 159.118 82.8696C158.434 82.5034 157.934 82.0396 157.604 81.4902ZM170.092 84.8105H171.959V75.9849C172.301 75.4722 172.765 75.0327 173.363 74.6665C173.949 74.3003 174.547 74.105 175.133 74.105C176.623 74.105 177.367 74.9473 177.367 76.6074V84.8105H179.235V75.9604C179.552 75.46 180.016 75.0205 180.626 74.6543C181.237 74.2881 181.835 74.105 182.433 74.105C183.178 74.105 183.739 74.3247 184.105 74.7642C184.472 75.2036 184.667 75.8262 184.667 76.6074V84.8105H186.535V76.0825C186.535 74.874 186.242 73.9585 185.68 73.3481C185.106 72.7378 184.264 72.4326 183.166 72.4326C182.335 72.4326 181.554 72.6646 180.797 73.1162C180.041 73.5801 179.479 74.105 179.113 74.6909C178.917 74.0317 178.551 73.4824 178.002 73.0674C177.453 72.6523 176.745 72.4326 175.866 72.4326C175.06 72.4326 174.279 72.6646 173.534 73.1162C172.777 73.5679 172.252 74.0195 171.959 74.4834V72.7378H170.092V84.8105ZM189.574 78.7559C189.574 80.6357 190.148 82.1738 191.295 83.3457C192.443 84.5298 193.92 85.1157 195.727 85.1157C197.68 85.1157 199.279 84.5054 200.524 83.2603L199.633 82.0396C199.157 82.5278 198.595 82.894 197.936 83.1626C197.277 83.4312 196.593 83.5654 195.897 83.5654C194.64 83.5654 193.615 83.1748 192.833 82.3691C192.052 81.5635 191.625 80.5747 191.552 79.3906H201.33V78.9146C201.33 77.6938 201.098 76.6074 200.646 75.6309C200.194 74.6543 199.523 73.8853 198.644 73.2993C197.753 72.7256 196.715 72.4326 195.531 72.4326C194.396 72.4326 193.371 72.7256 192.467 73.2871C191.552 73.8486 190.844 74.6177 190.331 75.582C189.818 76.5464 189.574 77.6084 189.574 78.7559ZM191.552 78.0112C191.576 77.5352 191.674 77.0591 191.857 76.5952C192.028 76.1313 192.272 75.7041 192.589 75.3135C192.907 74.9229 193.31 74.5933 193.822 74.3491C194.323 74.105 194.884 73.9829 195.507 73.9829C196.166 73.9829 196.752 74.1172 197.277 74.3613C197.79 74.6055 198.205 74.9351 198.522 75.3379C198.827 75.7407 199.059 76.168 199.218 76.6196C199.376 77.0835 199.462 77.5474 199.474 78.0112H191.552ZM204.369 84.8105H206.237V75.9849C206.603 75.4722 207.116 75.0205 207.775 74.6543C208.434 74.2881 209.105 74.105 209.813 74.105C210.68 74.105 211.352 74.3247 211.815 74.752C212.279 75.1914 212.511 75.9116 212.511 76.9126V84.8105H214.391V76.3389C214.391 73.7388 213.097 72.4326 210.534 72.4326C209.691 72.4326 208.886 72.6401 208.104 73.043C207.323 73.4458 206.701 73.9219 206.237 74.4834V72.7378H204.369V84.8105ZM216.503 74.3857H218.505V82.2837C218.505 83.187 218.725 83.895 219.176 84.3833C219.628 84.8716 220.299 85.1157 221.178 85.1157C222.13 85.1157 222.887 84.8594 223.437 84.3345L222.887 82.9307C222.594 83.2725 222.167 83.4312 221.605 83.4312C221.203 83.4312 220.897 83.2969 220.69 83.0161C220.482 82.7354 220.385 82.3569 220.385 81.8809V74.3857H222.838V72.7378H220.385V69.4297H218.505V72.7378H216.503V74.3857ZM232.006 84.8105H234.081V78.1821H238.708C240.294 78.1821 241.564 77.7061 242.516 76.7417C243.456 75.7773 243.932 74.5811 243.932 73.165C243.932 71.749 243.456 70.5527 242.528 69.5884C241.588 68.624 240.319 68.1357 238.708 68.1357H232.006V84.8105ZM234.081 76.3389V69.9912H238.451C239.428 69.9912 240.233 70.2842 240.856 70.8701C241.466 71.4561 241.784 72.2251 241.784 73.165C241.784 74.1172 241.466 74.874 240.856 75.46C240.233 76.0459 239.428 76.3389 238.451 76.3389H234.081ZM246.605 84.8105H248.473V76.2656C248.742 75.7773 249.218 75.3379 249.889 74.9351C250.548 74.5444 251.171 74.3369 251.745 74.3369C252.025 74.3369 252.282 74.3613 252.501 74.4102V72.4814C251.708 72.4814 250.963 72.689 250.28 73.0796C249.596 73.4824 248.986 74.0195 248.473 74.6909V72.7378H246.605V84.8105ZM254.149 78.7559C254.149 79.9277 254.381 81.002 254.87 81.9541C255.346 82.9185 256.042 83.6875 256.957 84.2612C257.873 84.835 258.935 85.1157 260.131 85.1157C261.327 85.1157 262.377 84.835 263.292 84.2612C264.208 83.6875 264.904 82.9185 265.38 81.9541C265.856 81.002 266.1 79.9277 266.1 78.7559C266.1 77.584 265.856 76.522 265.38 75.5698C264.904 74.6177 264.208 73.8608 263.292 73.2871C262.377 72.7256 261.327 72.4326 260.131 72.4326C258.935 72.4326 257.873 72.7256 256.957 73.2871C256.042 73.8608 255.346 74.6177 254.87 75.5698C254.381 76.522 254.149 77.584 254.149 78.7559ZM256.103 78.7559C256.103 77.9258 256.249 77.1689 256.554 76.4731C256.859 75.7773 257.323 75.2036 257.946 74.7642C258.568 74.3247 259.301 74.105 260.131 74.105C260.961 74.105 261.681 74.3247 262.292 74.7642C262.902 75.2036 263.366 75.7773 263.671 76.4609C263.964 77.1567 264.123 77.9258 264.123 78.7559C264.123 79.6104 263.964 80.3794 263.671 81.0752C263.366 81.771 262.902 82.3325 262.292 82.772C261.681 83.2114 260.961 83.4312 260.131 83.4312C258.886 83.4312 257.909 82.9795 257.189 82.0762C256.457 81.1729 256.103 80.062 256.103 78.7559ZM268.456 78.707C268.456 80.6357 268.944 82.1494 269.945 83.2725C270.934 84.3955 272.228 84.957 273.839 84.957C274.645 84.957 275.414 84.7617 276.122 84.3711C276.83 83.9805 277.416 83.4556 277.88 82.8086V84.5298C277.88 85.1646 277.77 85.7261 277.562 86.2021C277.343 86.6904 277.05 87.0688 276.684 87.3374C276.317 87.6182 275.902 87.8257 275.463 87.96C275.011 88.0942 274.523 88.1553 274.01 88.1553C273.131 88.1553 272.375 88.0332 271.752 87.7769C271.117 87.5205 270.568 87.0933 270.08 86.5073L269.14 87.9111C269.823 88.5947 270.543 89.0586 271.288 89.3149C272.021 89.5835 272.936 89.7056 274.01 89.7056C274.621 89.7056 275.207 89.6567 275.744 89.5469C276.281 89.4492 276.806 89.2661 277.306 89.0098C277.807 88.7534 278.234 88.4238 278.588 88.0332C278.942 87.6426 279.223 87.1421 279.442 86.5317C279.65 85.9214 279.76 85.2378 279.76 84.4565V72.7378H277.88V74.5566C277.379 73.8853 276.781 73.3604 276.085 72.9941C275.39 72.6279 274.645 72.4326 273.839 72.4326C272.228 72.4326 270.934 73.0063 269.945 74.1416C268.944 75.2769 268.456 76.8027 268.456 78.707ZM270.409 78.707C270.409 77.3521 270.751 76.2412 271.447 75.3867C272.13 74.5322 273.083 74.105 274.279 74.105C274.999 74.105 275.695 74.3003 276.366 74.6787C277.038 75.0571 277.538 75.521 277.88 76.0581V81.3315C277.538 81.8809 277.025 82.3447 276.366 82.7354C275.695 83.126 274.999 83.3091 274.279 83.3091C273.083 83.3091 272.143 82.8818 271.447 82.0273C270.751 81.1729 270.409 80.062 270.409 78.707ZM283.52 84.8105H285.387V76.2656C285.656 75.7773 286.132 75.3379 286.803 74.9351C287.462 74.5444 288.085 74.3369 288.659 74.3369C288.939 74.3369 289.196 74.3613 289.416 74.4102V72.4814C288.622 72.4814 287.877 72.689 287.194 73.0796C286.51 73.4824 285.9 74.0195 285.387 74.6909V72.7378H283.52V84.8105ZM291.088 81.1118C291.088 81.9541 291.295 82.6865 291.723 83.3091C292.15 83.9316 292.675 84.3833 293.31 84.6763C293.932 84.9692 294.604 85.1157 295.312 85.1157C296.947 85.1157 298.29 84.5542 299.315 83.4312V84.8105H301.195V76.5098C301.195 75.8018 301.073 75.1792 300.829 74.6421C300.585 74.105 300.243 73.6899 299.804 73.3726C299.364 73.0552 298.876 72.8232 298.327 72.6646C297.777 72.5181 297.179 72.4326 296.52 72.4326C294.567 72.4326 292.956 73.104 291.686 74.4346L292.565 75.7407C293.615 74.6177 294.848 74.0562 296.264 74.0562C297.155 74.0562 297.887 74.2881 298.461 74.7397C299.022 75.2036 299.315 75.8262 299.315 76.6074V78.7803C298.363 77.6816 297.021 77.1323 295.312 77.1323C294.774 77.1323 294.262 77.2178 293.773 77.3887C293.285 77.5596 292.833 77.7915 292.431 78.1089C292.016 78.4263 291.698 78.8413 291.454 79.354C291.21 79.8789 291.088 80.4648 291.088 81.1118ZM293.017 81.1362C293.017 80.3672 293.285 79.7324 293.847 79.2319C294.408 78.7437 295.116 78.4873 295.995 78.4873C296.679 78.4873 297.313 78.6216 297.899 78.8779C298.485 79.1343 298.961 79.5005 299.315 79.9888V82.2593C298.961 82.7476 298.485 83.126 297.899 83.3823C297.313 83.6387 296.679 83.7607 295.995 83.7607C295.116 83.7607 294.408 83.5166 293.847 83.0283C293.285 82.54 293.017 81.9053 293.017 81.1362ZM304.955 84.8105H306.823V75.9849C307.165 75.4722 307.628 75.0327 308.227 74.6665C308.812 74.3003 309.411 74.105 309.997 74.105C311.486 74.105 312.23 74.9473 312.23 76.6074V84.8105H314.098V75.9604C314.416 75.46 314.879 75.0205 315.49 74.6543C316.1 74.2881 316.698 74.105 317.296 74.105C318.041 74.105 318.603 74.3247 318.969 74.7642C319.335 75.2036 319.53 75.8262 319.53 76.6074V84.8105H321.398V76.0825C321.398 74.874 321.105 73.9585 320.543 73.3481C319.97 72.7378 319.127 72.4326 318.029 72.4326C317.199 72.4326 316.417 72.6646 315.661 73.1162C314.904 73.5801 314.342 74.105 313.976 74.6909C313.781 74.0317 313.415 73.4824 312.865 73.0674C312.316 72.6523 311.608 72.4326 310.729 72.4326C309.923 72.4326 309.142 72.6646 308.397 73.1162C307.641 73.5679 307.116 74.0195 306.823 74.4834V72.7378H304.955V84.8105ZM325.146 84.8105H327.013V75.9849C327.355 75.4722 327.819 75.0327 328.417 74.6665C329.003 74.3003 329.601 74.105 330.187 74.105C331.676 74.105 332.421 74.9473 332.421 76.6074V84.8105H334.289V75.9604C334.606 75.46 335.07 75.0205 335.68 74.6543C336.291 74.2881 336.889 74.105 337.487 74.105C338.231 74.105 338.793 74.3247 339.159 74.7642C339.525 75.2036 339.721 75.8262 339.721 76.6074V84.8105H341.588V76.0825C341.588 74.874 341.295 73.9585 340.734 73.3481C340.16 72.7378 339.318 72.4326 338.219 72.4326C337.389 72.4326 336.608 72.6646 335.851 73.1162C335.094 73.5801 334.533 74.105 334.167 74.6909C333.971 74.0317 333.605 73.4824 333.056 73.0674C332.506 72.6523 331.798 72.4326 330.919 72.4326C330.114 72.4326 329.333 72.6646 328.588 73.1162C327.831 73.5679 327.306 74.0195 327.013 74.4834V72.7378H325.146V84.8105ZM344.628 78.7559C344.628 80.6357 345.202 82.1738 346.349 83.3457C347.497 84.5298 348.974 85.1157 350.78 85.1157C352.733 85.1157 354.333 84.5054 355.578 83.2603L354.687 82.0396C354.21 82.5278 353.649 82.894 352.99 83.1626C352.331 83.4312 351.647 83.5654 350.951 83.5654C349.694 83.5654 348.668 83.1748 347.887 82.3691C347.106 81.5635 346.679 80.5747 346.605 79.3906H356.383V78.9146C356.383 77.6938 356.151 76.6074 355.7 75.6309C355.248 74.6543 354.577 73.8853 353.698 73.2993C352.807 72.7256 351.769 72.4326 350.585 72.4326C349.45 72.4326 348.424 72.7256 347.521 73.2871C346.605 73.8486 345.897 74.6177 345.385 75.582C344.872 76.5464 344.628 77.6084 344.628 78.7559ZM346.605 78.0112C346.63 77.5352 346.728 77.0591 346.911 76.5952C347.082 76.1313 347.326 75.7041 347.643 75.3135C347.96 74.9229 348.363 74.5933 348.876 74.3491C349.376 74.105 349.938 73.9829 350.561 73.9829C351.22 73.9829 351.806 74.1172 352.331 74.3613C352.843 74.6055 353.258 74.9351 353.576 75.3379C353.881 75.7407 354.113 76.168 354.271 76.6196C354.43 77.0835 354.516 77.5474 354.528 78.0112H346.605Z" fill="white"/>
</svg>
